<?xml version="1.0" encoding="UTF-8"?>
<svg xmlns="http://www.w3.org/2000/svg" xmlns:xlink="http://www.w3.org/1999/xlink" width="400px" height="400px" viewBox="0 0 400 400" version="1.1">
<g id="surface1">
<path style=" stroke:none;fill-rule:nonzero;fill:rgb(100%,47.450981%,47.450981%);fill-opacity:1;" d="M 332.8125 157.03125 C 341.453125 157.03125 348.4375 164.015625 348.4375 172.65625 C 348.4375 181.296875 341.453125 188.28125 332.8125 188.28125 C 324.171875 188.28125 317.1875 181.296875 317.1875 172.65625 C 317.1875 164.015625 324.171875 157.03125 332.8125 157.03125 Z M 332.8125 157.03125 "/>
<path style=" stroke:none;fill-rule:nonzero;fill:rgb(83.92157%,35.686275%,35.686275%);fill-opacity:1;" d="M 320.507812 181.445312 C 320.507812 172.804688 327.492188 165.820312 336.132812 165.820312 C 341.113281 165.820312 345.507812 168.164062 348.390625 171.777344 C 347.949219 163.574219 341.164062 157.03125 332.8125 157.03125 C 324.171875 157.03125 317.1875 164.015625 317.1875 172.65625 C 317.1875 176.320312 318.457031 179.6875 320.554688 182.324219 C 320.554688 182.03125 320.507812 181.738281 320.507812 181.445312 Z M 320.507812 181.445312 "/>
<path style=" stroke:none;fill-rule:nonzero;fill:rgb(84.313726%,87.058824%,92.941177%);fill-opacity:1;" d="M 364.0625 258.59375 L 364.0625 383.59375 L 35.9375 383.59375 L 35.9375 258.59375 Z M 364.0625 258.59375 "/>
<path style=" stroke:none;fill-rule:nonzero;fill:rgb(68.627453%,72.549021%,82.352942%);fill-opacity:1;" d="M 44.726562 267.773438 L 364.0625 267.773438 L 364.0625 258.59375 L 35.9375 258.59375 L 35.9375 383.59375 L 44.726562 383.59375 Z M 44.726562 267.773438 "/>
<path style=" stroke:none;fill-rule:nonzero;fill:rgb(34.117648%,37.64706%,43.529412%);fill-opacity:1;" d="M 332.8125 71.09375 L 294.042969 111.230469 C 294.042969 102.296875 293.945312 93.40625 294.140625 83.789062 C 228.367188 56.347656 169.140625 57.8125 114.0625 80.957031 C 113.914062 89.648438 113.964844 98.484375 114.0625 107.324219 L 113.867188 107.859375 L 75 71.09375 L 205.175781 16.40625 Z M 332.8125 71.09375 "/>
<path style=" stroke:none;fill-rule:nonzero;fill:rgb(25.490198%,29.019609%,33.725491%);fill-opacity:1;" d="M 294.042969 93.554688 C 293.992188 97.363281 293.992188 101.125 294.042969 104.882812 C 294.042969 101.171875 294.042969 97.460938 294.140625 93.554688 C 294.09375 93.554688 294.042969 93.554688 294.042969 93.554688 Z M 294.042969 93.554688 "/>
<path style=" stroke:none;fill-rule:nonzero;fill:rgb(25.490198%,29.019609%,33.725491%);fill-opacity:1;" d="M 205.175781 26.171875 L 326.125 77.976562 L 332.8125 71.09375 L 205.175781 16.40625 L 75 71.09375 L 82.128906 77.882812 Z M 205.175781 26.171875 "/>
<path style=" stroke:none;fill-rule:nonzero;fill:rgb(34.117648%,37.64706%,43.529412%);fill-opacity:1;" d="M 215.625 124.121094 C 181.6875 123.046875 147.851562 127.78125 114.0625 137.257812 C 114.210938 127.390625 114.109375 117.335938 114.0625 107.324219 C 113.964844 98.484375 113.914062 89.648438 114.0625 80.957031 C 169.140625 57.8125 228.367188 56.347656 294.140625 83.789062 C 293.945312 93.40625 294.042969 102.296875 294.042969 111.230469 C 294.042969 119.628906 293.992188 128.078125 293.75 137.257812 C 267.625 129.199219 241.601562 124.953125 215.625 124.121094 Z M 215.625 124.121094 "/>
<path style=" stroke:none;fill-rule:nonzero;fill:rgb(25.490198%,29.019609%,33.725491%);fill-opacity:1;" d="M 121.921875 135.15625 C 121.972656 128.125 121.921875 121.046875 121.875 113.964844 C 121.777344 105.125 121.726562 96.289062 121.875 87.597656 C 174.757812 65.382812 231.445312 63.183594 294.09375 87.304688 C 294.09375 86.132812 294.09375 84.960938 294.140625 83.789062 C 228.367188 56.347656 169.140625 57.8125 114.0625 80.957031 C 113.914062 89.648438 113.964844 98.484375 114.0625 107.324219 C 114.109375 117.335938 114.210938 127.390625 114.0625 137.257812 C 116.699219 136.523438 119.335938 135.839844 121.921875 135.15625 Z M 121.921875 135.15625 "/>
<path style=" stroke:none;fill-rule:nonzero;fill:rgb(0%,0%,0%);fill-opacity:1;" d="M 317.1875 344.53125 L 332.8125 344.53125 L 332.8125 360.15625 L 317.1875 360.15625 Z M 317.1875 344.53125 "/>
<path style=" stroke:none;fill-rule:nonzero;fill:rgb(0%,0%,0%);fill-opacity:1;" d="M 317.1875 313.28125 L 332.8125 313.28125 L 332.8125 328.90625 L 317.1875 328.90625 Z M 317.1875 313.28125 "/>
<path style=" stroke:none;fill-rule:nonzero;fill:rgb(0%,0%,0%);fill-opacity:1;" d="M 317.1875 282.03125 L 332.8125 282.03125 L 332.8125 297.65625 L 317.1875 297.65625 Z M 317.1875 282.03125 "/>
<path style=" stroke:none;fill-rule:nonzero;fill:rgb(0%,0%,0%);fill-opacity:1;" d="M 285.9375 344.53125 L 301.5625 344.53125 L 301.5625 360.15625 L 285.9375 360.15625 Z M 285.9375 344.53125 "/>
<path style=" stroke:none;fill-rule:nonzero;fill:rgb(0%,0%,0%);fill-opacity:1;" d="M 285.9375 313.28125 L 301.5625 313.28125 L 301.5625 328.90625 L 285.9375 328.90625 Z M 285.9375 313.28125 "/>
<path style=" stroke:none;fill-rule:nonzero;fill:rgb(0%,0%,0%);fill-opacity:1;" d="M 285.9375 282.03125 L 301.5625 282.03125 L 301.5625 297.65625 L 285.9375 297.65625 Z M 285.9375 282.03125 "/>
<path style=" stroke:none;fill-rule:nonzero;fill:rgb(0%,0%,0%);fill-opacity:1;" d="M 254.6875 344.53125 L 270.3125 344.53125 L 270.3125 360.15625 L 254.6875 360.15625 Z M 254.6875 344.53125 "/>
<path style=" stroke:none;fill-rule:nonzero;fill:rgb(0%,0%,0%);fill-opacity:1;" d="M 254.6875 313.28125 L 270.3125 313.28125 L 270.3125 328.90625 L 254.6875 328.90625 Z M 254.6875 313.28125 "/>
<path style=" stroke:none;fill-rule:nonzero;fill:rgb(0%,0%,0%);fill-opacity:1;" d="M 254.6875 282.03125 L 270.3125 282.03125 L 270.3125 297.65625 L 254.6875 297.65625 Z M 254.6875 282.03125 "/>
<path style=" stroke:none;fill-rule:nonzero;fill:rgb(0%,0%,0%);fill-opacity:1;" d="M 129.6875 344.53125 L 239.0625 344.53125 L 239.0625 360.15625 L 129.6875 360.15625 Z M 129.6875 344.53125 "/>
<path style=" stroke:none;fill-rule:nonzero;fill:rgb(0%,0%,0%);fill-opacity:1;" d="M 223.4375 313.28125 L 239.0625 313.28125 L 239.0625 328.90625 L 223.4375 328.90625 Z M 223.4375 313.28125 "/>
<path style=" stroke:none;fill-rule:nonzero;fill:rgb(0%,0%,0%);fill-opacity:1;" d="M 223.4375 282.03125 L 239.0625 282.03125 L 239.0625 297.65625 L 223.4375 297.65625 Z M 223.4375 282.03125 "/>
<path style=" stroke:none;fill-rule:nonzero;fill:rgb(0%,0%,0%);fill-opacity:1;" d="M 192.1875 313.28125 L 207.8125 313.28125 L 207.8125 328.90625 L 192.1875 328.90625 Z M 192.1875 313.28125 "/>
<path style=" stroke:none;fill-rule:nonzero;fill:rgb(0%,0%,0%);fill-opacity:1;" d="M 192.1875 282.03125 L 207.8125 282.03125 L 207.8125 297.65625 L 192.1875 297.65625 Z M 192.1875 282.03125 "/>
<path style=" stroke:none;fill-rule:nonzero;fill:rgb(0%,0%,0%);fill-opacity:1;" d="M 160.9375 313.28125 L 176.5625 313.28125 L 176.5625 328.90625 L 160.9375 328.90625 Z M 160.9375 313.28125 "/>
<path style=" stroke:none;fill-rule:nonzero;fill:rgb(0%,0%,0%);fill-opacity:1;" d="M 160.9375 282.03125 L 176.5625 282.03125 L 176.5625 297.65625 L 160.9375 297.65625 Z M 160.9375 282.03125 "/>
<path style=" stroke:none;fill-rule:nonzero;fill:rgb(0%,0%,0%);fill-opacity:1;" d="M 129.6875 313.28125 L 145.3125 313.28125 L 145.3125 328.90625 L 129.6875 328.90625 Z M 129.6875 313.28125 "/>
<path style=" stroke:none;fill-rule:nonzero;fill:rgb(0%,0%,0%);fill-opacity:1;" d="M 129.6875 282.03125 L 145.3125 282.03125 L 145.3125 297.65625 L 129.6875 297.65625 Z M 129.6875 282.03125 "/>
<path style=" stroke:none;fill-rule:nonzero;fill:rgb(0%,0%,0%);fill-opacity:1;" d="M 98.4375 344.53125 L 114.0625 344.53125 L 114.0625 360.15625 L 98.4375 360.15625 Z M 98.4375 344.53125 "/>
<path style=" stroke:none;fill-rule:nonzero;fill:rgb(0%,0%,0%);fill-opacity:1;" d="M 98.4375 313.28125 L 114.0625 313.28125 L 114.0625 328.90625 L 98.4375 328.90625 Z M 98.4375 313.28125 "/>
<path style=" stroke:none;fill-rule:nonzero;fill:rgb(0%,0%,0%);fill-opacity:1;" d="M 98.4375 282.03125 L 114.0625 282.03125 L 114.0625 297.65625 L 98.4375 297.65625 Z M 98.4375 282.03125 "/>
<path style=" stroke:none;fill-rule:nonzero;fill:rgb(0%,0%,0%);fill-opacity:1;" d="M 67.1875 344.53125 L 82.8125 344.53125 L 82.8125 360.15625 L 67.1875 360.15625 Z M 67.1875 344.53125 "/>
<path style=" stroke:none;fill-rule:nonzero;fill:rgb(0%,0%,0%);fill-opacity:1;" d="M 67.1875 313.28125 L 82.8125 313.28125 L 82.8125 328.90625 L 67.1875 328.90625 Z M 67.1875 313.28125 "/>
<path style=" stroke:none;fill-rule:nonzero;fill:rgb(0%,0%,0%);fill-opacity:1;" d="M 67.1875 282.03125 L 82.8125 282.03125 L 82.8125 297.65625 L 67.1875 297.65625 Z M 67.1875 282.03125 "/>
<path style=" stroke:none;fill-rule:nonzero;fill:rgb(0%,0%,0%);fill-opacity:1;" d="M 294.042969 115.136719 C 293.066406 115.136719 292.089844 114.796875 291.308594 114.0625 C 289.746094 112.546875 289.746094 110.109375 291.210938 108.546875 L 326.074219 72.460938 L 205.175781 20.65625 L 82.03125 72.363281 L 114.941406 103.515625 C 115.039062 103.515625 115.085938 103.5625 115.1875 103.5625 C 117.234375 104.199219 118.40625 106.398438 117.773438 108.445312 L 117.625 109.03125 C 117.234375 110.304688 116.164062 111.328125 114.890625 111.671875 C 113.574219 112.011719 112.15625 111.671875 111.179688 110.742188 L 72.3125 73.925781 C 71.335938 73.046875 70.898438 71.679688 71.140625 70.410156 C 71.386719 69.09375 72.265625 68.015625 73.484375 67.480469 L 203.664062 12.792969 C 204.640625 12.402344 205.761719 12.402344 206.738281 12.792969 L 334.375 67.480469 C 335.546875 68.015625 336.375 69.042969 336.621094 70.3125 C 336.914062 71.582031 336.523438 72.898438 335.644531 73.828125 L 296.828125 113.964844 C 296.09375 114.746094 295.070312 115.136719 294.042969 115.136719 Z M 294.042969 115.136719 "/>
<path style=" stroke:none;fill-rule:nonzero;fill:rgb(0%,0%,0%);fill-opacity:1;" d="M 114.0625 141.164062 C 113.234375 141.164062 112.351562 140.867188 111.671875 140.382812 C 110.695312 139.601562 110.15625 138.429688 110.15625 137.207031 C 110.304688 127.6875 110.203125 117.820312 110.15625 108.300781 L 110.15625 107.375 C 110.109375 99.609375 110.007812 89.992188 110.15625 80.90625 C 110.15625 79.34375 111.132812 77.929688 112.546875 77.34375 C 140.722656 65.476562 169.773438 59.472656 198.828125 59.472656 C 230.125 59.472656 262.695312 66.453125 295.605469 80.175781 C 297.117188 80.8125 298.046875 82.273438 298 83.886719 C 297.898438 91.648438 297.898438 99.121094 297.949219 106.296875 L 297.949219 111.230469 C 297.949219 119.238281 297.949219 127.929688 297.65625 137.402344 C 297.609375 138.574219 297.023438 139.746094 296.046875 140.429688 C 295.019531 141.164062 293.75 141.359375 292.578125 141.015625 C 267.480469 133.203125 241.554688 128.859375 215.476562 128.027344 C 212.402344 127.929688 209.226562 127.882812 206.152344 127.882812 C 176.804688 127.882812 146.191406 132.324219 115.136719 141.015625 C 114.796875 141.113281 114.40625 141.164062 114.0625 141.164062 Z M 117.921875 83.59375 C 117.820312 91.796875 117.921875 100.34375 117.96875 107.273438 L 117.96875 108.25 C 118.015625 116.113281 118.066406 124.171875 118.015625 132.128906 C 148.046875 124.121094 177.6875 120.070312 206.152344 120.070312 C 209.328125 120.070312 212.546875 120.117188 215.773438 120.214844 C 240.773438 120.996094 265.722656 125 289.992188 132.03125 C 290.136719 124.65625 290.136719 117.726562 290.136719 111.28125 L 290.136719 106.296875 C 290.085938 99.902344 290.085938 93.3125 290.1875 86.425781 C 259.03125 73.730469 228.320312 67.285156 198.828125 67.285156 C 171.632812 67.285156 144.433594 72.753906 117.921875 83.59375 Z M 117.921875 83.59375 "/>
<path style=" stroke:none;fill-rule:nonzero;fill:rgb(0%,0%,0%);fill-opacity:1;" d="M 332.8125 160.9375 C 330.664062 160.9375 328.90625 159.179688 328.90625 157.03125 L 328.90625 71.09375 C 328.90625 68.945312 330.664062 67.1875 332.8125 67.1875 C 334.960938 67.1875 336.71875 68.945312 336.71875 71.09375 L 336.71875 157.03125 C 336.71875 159.179688 334.960938 160.9375 332.8125 160.9375 Z M 332.8125 160.9375 "/>
<path style=" stroke:none;fill-rule:nonzero;fill:rgb(0%,0%,0%);fill-opacity:1;" d="M 332.8125 192.1875 C 322.023438 192.1875 313.28125 183.445312 313.28125 172.65625 C 313.28125 161.867188 322.023438 153.125 332.8125 153.125 C 343.601562 153.125 352.34375 161.867188 352.34375 172.65625 C 352.34375 183.445312 343.601562 192.1875 332.8125 192.1875 Z M 332.8125 160.9375 C 326.367188 160.9375 321.09375 166.210938 321.09375 172.65625 C 321.09375 179.101562 326.367188 184.375 332.8125 184.375 C 339.257812 184.375 344.53125 179.101562 344.53125 172.65625 C 344.53125 166.210938 339.257812 160.9375 332.8125 160.9375 Z M 332.8125 160.9375 "/>
<path style=" stroke:none;fill-rule:nonzero;fill:rgb(0%,0%,0%);fill-opacity:1;" d="M 285.9375 262.5 C 283.789062 262.5 282.03125 260.742188 282.03125 258.59375 L 282.03125 231.25 C 282.03125 225 279.589844 219.09375 275.148438 214.695312 C 270.75 210.253906 264.84375 207.8125 258.59375 207.8125 L 82.8125 207.8125 C 76.5625 207.8125 70.65625 205.371094 66.257812 200.929688 C 61.816406 196.53125 59.375 190.625 59.375 184.375 C 59.375 171.4375 69.875 160.9375 82.8125 160.9375 L 196.09375 160.9375 C 204.6875 160.9375 211.71875 153.90625 211.71875 145.3125 L 211.71875 102.34375 C 211.71875 100.195312 213.476562 98.4375 215.625 98.4375 C 217.773438 98.4375 219.53125 100.195312 219.53125 102.34375 L 219.53125 145.3125 C 219.53125 158.25 209.03125 168.75 196.09375 168.75 L 82.8125 168.75 C 74.21875 168.75 67.1875 175.78125 67.1875 184.375 C 67.1875 188.574219 68.796875 192.480469 71.777344 195.410156 C 74.707031 198.390625 78.613281 200 82.8125 200 L 258.59375 200 C 266.945312 200 274.804688 203.273438 280.710938 209.132812 C 286.570312 215.039062 289.84375 222.898438 289.84375 231.25 L 289.84375 258.59375 C 289.84375 260.742188 288.085938 262.5 285.9375 262.5 Z M 285.9375 262.5 "/>
<path style=" stroke:none;fill-rule:nonzero;fill:rgb(0%,0%,0%);fill-opacity:1;" d="M 364.0625 387.5 L 35.9375 387.5 C 33.789062 387.5 32.03125 385.742188 32.03125 383.59375 L 32.03125 258.59375 C 32.03125 256.445312 33.789062 254.6875 35.9375 254.6875 L 364.0625 254.6875 C 366.210938 254.6875 367.96875 256.445312 367.96875 258.59375 L 367.96875 383.59375 C 367.96875 385.742188 366.210938 387.5 364.0625 387.5 Z M 39.84375 379.6875 L 360.15625 379.6875 L 360.15625 262.5 L 39.84375 262.5 Z M 39.84375 379.6875 "/>
</g>
</svg>
