<?xml version="1.0" encoding="UTF-8"?>
<svg version="1.1" xmlns="http://www.w3.org/2000/svg" width="1200" height="1200">
<path d="M0 0 C396 0 792 0 1200 0 C1200 396 1200 792 1200 1200 C804 1200 408 1200 0 1200 C0 804 0 408 0 0 Z " fill="#FEFEFE" transform="translate(0,0)"/>
<path d="M0 0 C396 0 792 0 1200 0 C1200 396 1200 792 1200 1200 C804 1200 408 1200 0 1200 C0 804 0 408 0 0 Z M113 113 C113 434.42 113 755.84 113 1087 C434.42 1087 755.84 1087 1087 1087 C1087 765.58 1087 444.16 1087 113 C765.58 113 444.16 113 113 113 Z " fill="#FEFEFE" transform="translate(0,0)"/>
<path d="M0 0 C316.8 0 633.6 0 960 0 C960 113.85 960 227.7 960 345 C643.2 345 326.4 345 0 345 C0 231.15 0 117.3 0 0 Z " fill="#FEFEFE" transform="translate(120,120)"/>
<path d="M0 0 C321.42 0 642.84 0 974 0 C974 321.42 974 642.84 974 974 C652.58 974 331.16 974 0 974 C0 652.58 0 331.16 0 0 Z M7 7 C7 120.85 7 234.7 7 352 C323.8 352 640.6 352 967 352 C967 238.15 967 124.3 967 7 C650.2 7 333.4 7 7 7 Z M7 637 C7 745.9 7 854.8 7 967 C323.8 967 640.6 967 967 967 C967 858.1 967 749.2 967 637 C650.2 637 333.4 637 7 637 Z " fill="#FDFEFE" transform="translate(113,113)"/>
<path d="M0 0 C321.42 0 642.84 0 974 0 C974 321.42 974 642.84 974 974 C652.58 974 331.16 974 0 974 C0 652.58 0 331.16 0 0 Z M7 7 C7 120.85 7 234.7 7 352 C323.8 352 640.6 352 967 352 C967 238.15 967 124.3 967 7 C650.2 7 333.4 7 7 7 Z M7 359 C7 448.43 7 537.86 7 630 C323.8 630 640.6 630 967 630 C967 540.57 967 451.14 967 359 C650.2 359 333.4 359 7 359 Z M7 637 C7 745.9 7 854.8 7 967 C323.8 967 640.6 967 967 967 C967 858.1 967 749.2 967 637 C650.2 637 333.4 637 7 637 Z " fill="#2B81E3" transform="translate(113,113)"/>
<path d="M0 0 C9.47725179 3.67136781 16.73870106 19.29260089 21 28 C21.71875 30.91015625 21.71875 30.91015625 22 33 C30.90522178 28.52677517 37.6469682 23.44131937 43 15 C43.66 15 44.32 15 45 15 C48.16801648 24.78690805 48.32476018 33.84823738 48 44 C60.0365282 38.24156265 60.0365282 38.24156265 71.30078125 31.12890625 C73 30 73 30 76 29 C76.70973053 43.82548219 72.87632259 57.38414609 65 70 C70.97993156 69.60676187 75.59513014 68.59433753 81 66 C81.99 65.67 82.98 65.34 84 65 C84.67453337 76.51703273 82.16285934 86.77903401 75 96 C71.19020954 99.73745267 67.39074132 101.90531726 62.375 103.625 C56.96697344 105.81969571 55.71887777 109.9195392 53.4453125 115.01953125 C50.15308123 121.80864601 45.01032285 125.8561368 37.9375 128.3359375 C28.89683344 130.37970521 20.16207496 130.19390451 12.08984375 125.42578125 C11.05537109 124.72001953 11.05537109 124.72001953 10 124 C9.07380859 123.37158203 9.07380859 123.37158203 8.12890625 122.73046875 C4.8405548 120.24646226 3.13057021 117.95699572 2 114 C1.34 114 0.68 114 0 114 C-0.36738281 115.12535156 -0.36738281 115.12535156 -0.7421875 116.2734375 C-3.27381159 121.76124376 -9.2268741 125.43968297 -14.625 127.9375 C-22.48862035 130.43813127 -31.99485508 130.4146543 -39.5 126.9375 C-47.69704664 122.07092837 -52.49242362 115.8416787 -56 107 C-56 106.34 -56 105.68 -56 105 C-56.72316406 104.88785156 -57.44632813 104.77570313 -58.19140625 104.66015625 C-65.49734245 102.9429056 -71.58196646 98.37229596 -75.75390625 92.21484375 C-79.77211292 85.07276481 -82.17214486 77.91086427 -82.0625 69.6875 C-82.05347656 68.80449219 -82.04445313 67.92148437 -82.03515625 67.01171875 C-82.02355469 66.34785156 -82.01195312 65.68398438 -82 65 C-81.41863281 65.29777344 -80.83726562 65.59554687 -80.23828125 65.90234375 C-78.24114162 66.88174381 -76.25950582 67.75648552 -74.1875 68.5625 C-73.56230469 68.81128906 -72.93710937 69.06007813 -72.29296875 69.31640625 C-69.23353888 70.22850204 -66.16216404 70.59948465 -63 71 C-63.53109375 70.030625 -64.0621875 69.06125 -64.609375 68.0625 C-71.14472035 55.79791758 -76.22826734 43.19331151 -75 29 C-71.7952433 30.49770037 -68.82589467 32.31403837 -65.82055664 34.17407227 C-59.41892894 38.12558521 -53.16693417 41.58853744 -46 44 C-46.05220703 42.74509766 -46.05220703 42.74509766 -46.10546875 41.46484375 C-46.32160989 32.17077479 -45.12503582 24.03140223 -43 15 C-42.34 15 -41.68 15 -41 15 C-39.97135926 16.29554752 -39.00280048 17.63897827 -38.0625 19 C-33.5041258 25.06503683 -27.28768028 30.57077324 -20 33 C-19.71125 31.845 -19.4225 30.69 -19.125 29.5 C-15.52610101 18.6861654 -7.9768824 8.02970944 0 0 Z " fill="#3285E3" transform="translate(599,262)"/>
<path d="M0 0 C0.33 0 0.66 0 1 0 C1 16.5 1 33 1 50 C3.31 50.33 5.62 50.66 8 51 C9.29615865 51.31541503 10.58865942 51.6466704 11.875 52 C19.14300705 53.41814772 26.60770787 53.56515929 34 54 C34 339.78 34 625.56 34 920 C27.4 920.33 20.8 920.66 14 921 C11.03 921.66 8.06 922.32 5 923 C3.68 923 2.36 923 1 923 C1 939.83 1 956.66 1 974 C0.67 974 0.34 974 0 974 C0 652.58 0 331.16 0 0 Z M1 57 C1 340.14 1 623.28 1 915 C9.68087183 914.13191282 18.34320088 913.08209989 27 912 C27 631.5 27 351 27 62 C18.42 60.35 9.84 58.7 1 57 Z " fill="#C4CAD0" transform="translate(1087,113)"/>
<path d="M0 0 C285.78 0 571.56 0 866 0 C866.33 6.93 866.66 13.86 867 21 C867.66 23.64 868.32 26.28 869 29 C869 30.32 869 31.64 869 33 C885.83 33 902.66 33 920 33 C920 33.33 920 33.66 920 34 C598.58 34 277.16 34 -54 34 C-54 33.67 -54 33.34 -54 33 C-37.83 32.67 -21.66 32.34 -5 32 C-0.42062902 16.84049961 -0.42062902 16.84049961 0 0 Z M8 7 C7.01 12.61 6.02 18.22 5 24 C4.34 26.97 3.68 29.94 3 33 C286.14 33 569.28 33 861 33 C860.34 27.39 859.68 21.78 859 16 C858.67 13.03 858.34 10.06 858 7 C577.5 7 297 7 8 7 Z " fill="#C4CAD0" transform="translate(167,79)"/>
<path d="M0 0 C321.42 0 642.84 0 974 0 C974 0.33 974 0.66 974 1 C957.5 1 941 1 924 1 C923.67 3.31 923.34 5.62 923 8 C922.68458497 9.29615865 922.3533296 10.58865942 922 11.875 C920.58185228 19.14300705 920.43484071 26.60770787 920 34 C634.22 34 348.44 34 54 34 C53.67 27.4 53.34 20.8 53 14 C52.01 7.565 52.01 7.565 51 1 C34.17 1 17.34 1 0 1 C0 0.67 0 0.34 0 0 Z M59 1 C59.66 6.28 60.32 11.56 61 17 C61.33 20.3 61.66 23.6 62 27 C342.5 27 623 27 912 27 C913.485 19.08 913.485 19.08 915 11 C915.66 7.7 916.32 4.4 917 1 C633.86 1 350.72 1 59 1 Z " fill="#C4CAD0" transform="translate(113,1087)"/>
<path d="M0 0 C0.33 0 0.66 0 1 0 C1 321.42 1 642.84 1 974 C0.67 974 0.34 974 0 974 C-0.33 957.83 -0.66 941.66 -1 925 C-16.18690576 920.56723163 -16.18690576 920.56723163 -33 919 C-33 633.55 -33 348.1 -33 54 C-26.73 53.67 -20.46 53.34 -14 53 C-9.93595961 52.29070101 -9.93595961 52.29070101 -5.91015625 51.40234375 C-4 51 -4 51 0 51 C0 34.17 0 17.34 0 0 Z M-26 62 C-26 342.5 -26 623 -26 912 C-18.74 913.32 -11.48 914.64 -4 916 C-2.68 916.33 -1.36 916.66 0 917 C0 633.86 0 350.72 0 59 C-8.72416822 59 -17.35583094 60.82124967 -26 62 Z " fill="#C4CAD0" transform="translate(112,113)"/>
<path d="M0 0 C22.34491466 -0.79433236 22.34491466 -0.79433236 30.55908203 5.38623047 C35.12074441 10.29001753 36.43614041 14.44910529 36.3996582 21.08886719 C36.40031532 22.09967598 36.40031532 22.09967598 36.40098572 23.13090515 C36.3989104 25.33871332 36.37564054 27.54574393 36.35205078 29.75341797 C36.34645032 31.29183538 36.34218235 32.83025817 36.33918762 34.36868286 C36.32777422 38.40310634 36.29833771 42.43720197 36.26507568 46.47149658 C36.23429883 50.59407111 36.22066607 54.71669899 36.20556641 58.83935547 C36.17346422 66.91763034 36.12231085 74.99563953 36.05908203 83.07373047 C36.96291626 83.16352173 36.96291626 83.16352173 37.88500977 83.25512695 C38.68366455 83.33835205 39.48231934 83.42157715 40.30517578 83.50732422 C41.09335693 83.58781006 41.88153809 83.6682959 42.69360352 83.7512207 C45.95256375 84.19554793 48.92893059 85.07474597 52.05908203 86.07373047 C52.05908203 88.05373047 52.05908203 90.03373047 52.05908203 92.07373047 C32.09688375 96.03785495 32.09688375 96.03785495 26.04345703 93.09326172 C23.17491792 90.83045781 21.57408659 88.32612557 20.05908203 85.07373047 C19.46482422 85.46044922 18.87056641 85.84716797 18.25830078 86.24560547 C6.50893337 93.62778966 -4.98674643 97.40523416 -18.94091797 95.07373047 C-24.16380625 92.90233631 -27.61948092 89.23247947 -29.94091797 84.07373047 C-30.33279297 83.22810547 -30.72466797 82.38248047 -31.12841797 81.51123047 C-32.9311269 73.88438497 -32.967249 66.17998806 -29.33544922 59.10888672 C-23.50747727 50.60363914 -15.22189715 47.3106266 -5.46508789 45.43798828 C-4.57023682 45.2765332 -3.67538574 45.11507812 -2.75341797 44.94873047 C-1.3676355 44.6910791 -1.3676355 44.6910791 0.04614258 44.42822266 C6.71722078 43.22412022 13.28633067 42.41538261 20.05908203 42.07373047 C19.97796495 38.34368937 19.86514128 34.61525447 19.74658203 30.88623047 C19.71274414 29.30358398 19.71274414 29.30358398 19.67822266 27.68896484 C19.64277344 26.66738281 19.60732422 25.64580078 19.57080078 24.59326172 C19.5446167 23.65587158 19.51843262 22.71848145 19.49145508 21.75268555 C18.81453038 17.55850446 17.09823478 14.89326846 13.78564453 12.28076172 C5.48642713 8.60675287 -5.39673008 11.22633849 -13.94091797 13.07373047 C-15.59091797 18.35373047 -17.24091797 23.63373047 -18.94091797 29.07373047 C-20.92091797 29.07373047 -22.90091797 29.07373047 -24.94091797 29.07373047 C-25.44601436 25.99120958 -25.94409796 22.90759522 -26.44091797 19.82373047 C-26.58400391 18.95103516 -26.72708984 18.07833984 -26.87451172 17.17919922 C-27.00986328 16.33486328 -27.14521484 15.49052734 -27.28466797 14.62060547 C-27.41035156 13.84555664 -27.53603516 13.07050781 -27.66552734 12.27197266 C-27.94091797 10.07373047 -27.94091797 10.07373047 -27.94091797 6.07373047 C-9.59077458 0.3643288 -9.59077458 0.3643288 0 0 Z " fill="#2F83E3" transform="translate(779.94091796875,588.92626953125)"/>
<path d="M0 0 C0.80759766 -0.00773438 1.61519531 -0.01546875 2.44726562 -0.0234375 C11.90671172 0.00705225 20.10165617 2.18650485 27.5625 8.25 C36.41381314 19.14112194 35.5625 30.17752905 35.5625 44.25 C16.4225 44.25 -2.7175 44.25 -22.4375 44.25 C-21.35911796 64.3446721 -21.35911796 64.3446721 -11.4375 80.25 C-5.21352957 84.5553594 0.61385959 84.80784908 8 84.625 C8.98548828 84.62371094 9.97097656 84.62242187 10.98632812 84.62109375 C16.42746281 84.55618956 21.43056585 84.05668561 26.70117188 82.68652344 C29.01702129 82.1434045 31.19445887 82.09722315 33.5625 82.25 C33.5625 84.23 33.5625 86.21 33.5625 88.25 C18.77587407 96.19096578 3.05041493 98.4856752 -13.32421875 94.2890625 C-22.93664907 91.08089881 -29.75232318 85.37711762 -34.625 76.5625 C-41.61930771 61.02284563 -42.46213846 39.33960987 -36.4375 23.25 C-33.12315669 15.90320567 -29.03113738 9.90936157 -22.125 5.5625 C-21.22136719 4.98113281 -20.31773437 4.39976562 -19.38671875 3.80078125 C-12.98058213 0.43225643 -7.07429216 -0.06742773 0 0 Z " fill="#2F83E3" transform="translate(549.4375,588.75)"/>
<path d="M0 0 C0.33853295 8.16240568 -0.70098079 15.95072024 -2 24 C-4.64 24 -7.28 24 -10 24 C-11.32 18.06 -12.64 12.12 -14 6 C-35.33216566 3.19440225 -35.33216566 3.19440225 -54.91796875 10.37890625 C-56.31500793 11.54365863 -57.6634722 12.76628204 -59 14 C-59.66 14 -60.32 14 -61 14 C-61.26941406 14.55945313 -61.53882813 15.11890625 -61.81640625 15.6953125 C-63 18 -63 18 -64.40234375 20.3046875 C-73.75770897 35.96837787 -74.68784675 56.64738686 -70.375 74.1875 C-66.51544438 86.3194598 -61.9688953 95.31241453 -50.8125 101.875 C-44.81537114 104.27385154 -38.99124398 104.183079 -32.625 104.1875 C-31.70460938 104.19974609 -30.78421875 104.21199219 -29.8359375 104.22460938 C-28.93359375 104.22654297 -28.03125 104.22847656 -27.1015625 104.23046875 C-26.29025879 104.23457764 -25.47895508 104.23868652 -24.64306641 104.24291992 C-21.21708792 104.01047862 -21.21708792 104.01047862 -15 102 C-15 90.78 -15 79.56 -15 68 C-17.31 68 -19.62 68 -22 68 C-25.08984375 67.34375 -25.08984375 67.34375 -27.9375 66.5 C-28.89527344 66.2215625 -29.85304688 65.943125 -30.83984375 65.65625 C-31.55269531 65.4396875 -32.26554687 65.223125 -33 65 C-33 62.69 -33 60.38 -33 58 C-17.82 58 -2.64 58 13 58 C13 60.31 13 62.62 13 65 C11.39743892 65.50512244 9.79288208 66.00391627 8.1875 66.5 C7.29417969 66.7784375 6.40085937 67.056875 5.48046875 67.34375 C3 68 3 68 0 68 C0 80.87 0 93.74 0 107 C-12.6899101 112.76814095 -21.33575169 114.360426 -34.875 114.375 C-36.06480469 114.39949219 -37.25460937 114.42398438 -38.48046875 114.44921875 C-52.50461059 114.49519954 -64.77597023 109.92977762 -75.1875 100.4375 C-88.83443968 85.85319476 -90.92272085 67.04291798 -90.37890625 48.01953125 C-89.57954627 32.0147908 -84.29994719 18.0589215 -72.36328125 6.96484375 C-54.0730924 -8.24170995 -21.47620649 -9.84326131 0 0 Z " fill="#3084E3" transform="translate(329,570)"/>
<path d="M0 0 C0 2.31 0 4.62 0 7 C1.24136719 6.57847656 2.48273437 6.15695312 3.76171875 5.72265625 C5.40359178 5.16911049 7.04552188 4.61573396 8.6875 4.0625 C9.50412109 3.78470703 10.32074219 3.50691406 11.16210938 3.22070312 C23.04192072 -0.77129826 38.43021983 -3.01511848 50.1171875 2.7265625 C54.27676762 5.53988847 57.14858416 9.33082546 59 14 C59.24050903 17.13848877 59.24050903 17.13848877 59.22705078 20.87988281 C59.22734283 21.56321686 59.22763489 22.2465509 59.22793579 22.95059204 C59.22654624 25.20156706 59.21100302 27.45220804 59.1953125 29.703125 C59.19158103 31.26682352 59.18873469 32.83052438 59.18673706 34.39422607 C59.17911114 38.50421638 59.15947164 42.6140647 59.1373291 46.72399902 C59.11684822 50.92014648 59.10773055 55.11631694 59.09765625 59.3125 C59.07622472 67.54173173 59.04210139 75.77084819 59 84 C59.67401855 84.13132324 60.34803711 84.26264648 61.04248047 84.39794922 C61.93338379 84.57342285 62.82428711 84.74889648 63.7421875 84.9296875 C64.62245605 85.10226074 65.50272461 85.27483398 66.40966797 85.45263672 C69.66738569 86.14102533 72.81563163 87.03084441 76 88 C76 89.98 76 91.96 76 94 C60.16 94 44.32 94 28 94 C28 92.02 28 90.04 28 88 C29.93558599 87.32779649 31.87354372 86.66241923 33.8125 86 C34.89144531 85.62875 35.97039062 85.2575 37.08203125 84.875 C40 84 40 84 43 84 C42.91566582 75.3159424 42.82080973 66.6320824 42.71247292 57.94829082 C42.66250079 53.91616451 42.61617094 49.88406452 42.578125 45.85180664 C42.54128359 41.96134406 42.49492699 38.07110116 42.44193649 34.18082619 C42.4233864 32.69569561 42.40828069 31.21051793 42.39665604 29.725317 C42.37980378 27.64697083 42.35077235 25.56912843 42.31884766 23.4909668 C42.30552399 22.30738083 42.29220032 21.12379486 42.2784729 19.90434265 C42.21238337 16.80642509 42.21238337 16.80642509 40 14 C35.26843512 11.86866447 30.73114246 11.69634526 25.625 11.75 C24.57892578 11.73839844 24.57892578 11.73839844 23.51171875 11.7265625 C15.49439156 11.75474291 8.11297339 12.98587833 0 14 C0 37.1 0 60.2 0 84 C3.3 84.66 6.6 85.32 10 86 C12.01345199 86.62486441 14.02179902 87.27118911 16 88 C16 89.98 16 91.96 16 94 C0.16 94 -15.68 94 -32 94 C-32 92.02 -32 90.04 -32 88 C-29.91891315 87.32635339 -27.8350329 86.66133202 -25.75 86 C-24.58984375 85.62875 -23.4296875 85.2575 -22.234375 84.875 C-19 84 -19 84 -15 84 C-15 60.57 -15 37.14 -15 13 C-21.93 12.505 -21.93 12.505 -29 12 C-29.99 11.67 -30.98 11.34 -32 11 C-31.67 9.35 -31.34 7.7 -31 6 C-27.33770771 4.98349761 -23.66957758 3.9898496 -20 3 C-18.97003906 2.71382812 -17.94007813 2.42765625 -16.87890625 2.1328125 C-11.06552396 0.57764017 -6.0175548 -0.34716662 0 0 Z " fill="#3084E3" transform="translate(873,589)"/>
<path d="M0 0 C5.65377964 3.66324776 9.74746894 7.79672291 13.265625 13.5234375 C13.64332031 14.12671875 14.02101563 14.73 14.41015625 15.3515625 C21.99233456 28.86885416 22.06240224 45.98238139 18.17578125 60.625 C14.40355374 72.63784468 8.4474227 81.31680089 -2.734375 87.5234375 C-13.52749639 92.65608545 -30.77893529 92.65847924 -42.046875 88.9609375 C-53.09372244 83.89779909 -59.81079044 76.02931933 -64.046875 64.7734375 C-68.62143288 51.57091601 -69.49676493 32.91462417 -63.99609375 19.88671875 C-57.8556015 8.38517754 -51.11990626 1.11348124 -38.734375 -3.4765625 C-27.06743364 -6.85308064 -10.61421083 -5.73167385 0 0 Z M-43.046875 11.9609375 C-51.91151459 25.42205688 -52.06022242 45.34622124 -49.046875 60.82421875 C-46.87429284 68.52783301 -43.30177874 75.57535656 -36.421875 80.0234375 C-29.23090542 83.13906068 -19.59126609 82.59721576 -12.06640625 80.93359375 C-5.47184459 78.16566361 -2.12346348 71.76464395 0.578125 65.4609375 C2.42278122 57.57922456 2.47878923 49.70626282 2.515625 41.6484375 C2.53625 40.52824219 2.556875 39.40804687 2.578125 38.25390625 C2.62972511 27.19858276 0.49982024 18.10638101 -6.734375 9.5234375 C-13.11560866 3.81971753 -20.67435463 4.01758638 -28.796875 4.17578125 C-35.39816108 4.7586329 -38.62669765 7.30183165 -43.046875 11.9609375 Z " fill="#2F83E3" transform="translate(418.734375,593.4765625)"/>
<path d="M0 0 C0.33 8.91 0.66 17.82 1 27 C2.65 26.34 4.3 25.68 6 25 C14.68120649 24.06640656 23.18846797 24.86700323 30.3125 30.25 C37.38863578 37.49069708 38.29112868 44.66799345 38.3190918 54.42504883 C38.1891938 62.28513479 36.0395748 67.76067531 31.875 74.375 C23.90475695 81.65217843 14.94836311 81.5294519 4.68359375 81.3359375 C-7.22956863 80.77043137 -7.22956863 80.77043137 -10 78 C-10.09432985 75.79132169 -10.11742431 73.57958479 -10.11352539 71.36889648 C-10.11367142 70.67624695 -10.11381744 69.98359741 -10.1139679 69.2699585 C-10.11326874 66.97030554 -10.10547628 64.67073263 -10.09765625 62.37109375 C-10.09579208 60.78068588 -10.09436817 59.19027743 -10.09336853 57.59986877 C-10.08954329 53.4060407 -10.07971295 49.21224705 -10.06866455 45.01843262 C-10.05845057 40.74211086 -10.05387094 36.46578356 -10.04882812 32.18945312 C-10.03809069 23.79295292 -10.02101419 15.39648074 -10 7 C-12.97 7 -15.94 7 -19 7 C-19 6.01 -19 5.02 -19 4 C-16.58490559 3.32713788 -14.16819644 2.66153988 -11.75 2 C-11.06808594 1.80921875 -10.38617187 1.6184375 -9.68359375 1.421875 C-6.29399088 0.50042956 -3.54221024 0 0 0 Z " fill="#3587E4" transform="translate(530,846)"/>
<path d="M0 0 C0 24.42 0 48.84 0 74 C3.3 74.33 6.6 74.66 10 75 C10 76.32 10 77.64 10 79 C5.1755914 80.57531709 1.14139563 81.48503732 -4 81 C-6.4375 79.625 -6.4375 79.625 -8 78 C-8 77.34 -8 76.68 -8 76 C-8.79921875 76.3609375 -9.5984375 76.721875 -10.421875 77.09375 C-18.03640405 80.31115664 -24.70705353 82.34682439 -33 81 C-39.26518682 77.97928492 -42.56116399 73.46771838 -45.25 67.1875 C-48.11059789 58.79868317 -48.77125864 48.28544666 -45.375 39.9375 C-42.0288599 33.80680974 -37.89474157 28.55968709 -31.40625 25.65234375 C-23.705193 23.56455719 -16.52065872 24.85124037 -9 27 C-9 20.73 -9 14.46 -9 8 C-12.3 7.67 -15.6 7.34 -19 7 C-19 6.01 -19 5.02 -19 4 C-16.77332235 3.32506659 -14.54354023 2.66036956 -12.3125 2 C-11.07113281 1.62875 -9.82976563 1.2575 -8.55078125 0.875 C-5 0 -5 0 0 0 Z " fill="#3084E3" transform="translate(864,846)"/>
<path d="M0 0 C-0.70588974 7.05889737 -1.78213386 14.01204964 -3 21 C-4.98 21 -6.96 21 -9 21 C-9.50471197 19.23050388 -10.00360685 17.45934777 -10.5 15.6875 C-10.7784375 14.70136719 -11.056875 13.71523438 -11.34375 12.69921875 C-12 10 -12 10 -12 7 C-16.64418886 5.85063334 -21.18107764 5.74574191 -25.9375 5.6875 C-27.11602539 5.64399414 -27.11602539 5.64399414 -28.31835938 5.59960938 C-33.72407932 5.54080238 -36.68913568 6.45258646 -41 10 C-43.24112088 11.82302652 -43.24112088 11.82302652 -43.265625 14.4609375 C-43.26046875 15.42257812 -43.2553125 16.38421875 -43.25 17.375 C-43.25515625 18.33148437 -43.2603125 19.28796875 -43.265625 20.2734375 C-42.9903285 23.09927515 -42.59957783 24.6691866 -41 27 C-35.30606682 31.11156451 -28.05971813 33.09693131 -21.5 35.4375 C-2.33823704 42.32352593 -2.33823704 42.32352593 2 51 C4.6230354 59.12063014 4.0031655 69.14434796 0.375 76.81640625 C-3.80542511 83.45520635 -9.75677435 87.15142341 -17.203125 89.34375 C-29.99513555 91.55471479 -47.10973306 91.94513347 -59 86 C-58.34 78.74 -57.68 71.48 -57 64 C-54.69 64 -52.38 64 -50 64 C-49.01 68.95 -48.02 73.9 -47 79 C-31.63938732 81.50593846 -31.63938732 81.50593846 -17 77.8125 C-13.33303461 74.81225559 -12.27288464 72.32528461 -11.72265625 67.63671875 C-11.4586262 63.28988253 -11.46149687 60.79906916 -13.9375 57.125 C-19.04139156 53.58352422 -24.50166927 51.55013589 -30.3046875 49.40625 C-47.10321717 43.15518825 -47.10321717 43.15518825 -52 38 C-52.51949219 37.47535156 -53.03898438 36.95070313 -53.57421875 36.41015625 C-58.68814644 30.00723856 -57.69255629 21.70568376 -57 14 C-56.04877295 7.5116302 -52.50164949 3.77240749 -47.4921875 -0.30078125 C-33.58830186 -9.78070328 -14.63389666 -5.18669755 0 0 Z " fill="#2F83E3" transform="translate(658,594)"/>
<path d="M0 0 C0 41.91 0 83.82 0 127 C2.64 127.33 5.28 127.66 8 128 C9.67250672 128.32547361 11.34107328 128.67368905 13 129.0625 C13.763125 129.23910156 14.52625 129.41570312 15.3125 129.59765625 C15.869375 129.73042969 16.42625 129.86320313 17 130 C17 132.31 17 134.62 17 137 C0.5 137 -16 137 -33 137 C-33 134.69 -33 132.38 -33 130 C-30.73000175 129.49622232 -28.45896997 128.99709981 -26.1875 128.5 C-24.92292969 128.2215625 -23.65835937 127.943125 -22.35546875 127.65625 C-19 127 -19 127 -16 127 C-16 89.38 -16 51.76 -16 13 C-21.28 12.67 -26.56 12.34 -32 12 C-32 10.35 -32 8.7 -32 7 C-28.60827805 6.02457048 -25.21554516 5.05296987 -21.8203125 4.08984375 C-19.49906499 3.42764737 -17.18050723 2.75578707 -14.8671875 2.06640625 C-13.94164062 1.79699219 -13.01609375 1.52757812 -12.0625 1.25 C-11.24910156 1.00765625 -10.43570312 0.7653125 -9.59765625 0.515625 C-7 0 -7 0 0 0 Z " fill="#3285E3" transform="translate(482,546)"/>
<path d="M0 0 C2.31 0 4.62 0 7 0 C7 6.6 7 13.2 7 20 C17.23 20 27.46 20 38 20 C38 23.63 38 27.26 38 31 C27.77 31 17.54 31 7 31 C7 54.43 7 77.86 7 102 C12.28 102.33 17.56 102.66 23 103 C27.03274965 103.61211379 31.00586456 104.220841 35 105 C35 106.98 35 108.96 35 111 C4.90620133 116.13274942 4.90620133 116.13274942 -2.18359375 113.05078125 C-5.39188769 110.61186235 -6.81831424 107.74953949 -8 104 C-8.24050903 100.58940125 -8.24050903 100.58940125 -8.22705078 96.6394043 C-8.22734283 95.91690994 -8.22763489 95.19441559 -8.22793579 94.45002747 C-8.22654839 92.07463345 -8.21101525 89.69955761 -8.1953125 87.32421875 C-8.19158027 85.67226839 -8.18873429 84.0203158 -8.18673706 82.36836243 C-8.17911714 78.02987509 -8.15948281 73.6915226 -8.1373291 69.35308838 C-8.11683526 64.92225977 -8.10772779 60.49140927 -8.09765625 56.06054688 C-8.0762353 47.37362927 -8.04106659 38.68684697 -8 30 C-12.62 30 -17.24 30 -22 30 C-22 27.69 -22 25.38 -22 23 C-20.25307205 22.32532438 -18.50231475 21.66055844 -16.75 21 C-15.28820312 20.443125 -15.28820312 20.443125 -13.796875 19.875 C-11 19 -11 19 -7 19 C-6.74476563 18.07380859 -6.74476563 18.07380859 -6.484375 17.12890625 C-4.77814576 11.1661796 -2.66418883 5.59885369 0 0 Z " fill="#2E82E3" transform="translate(696,570)"/>
<path d="M0 0 C2.04178012 1.82659178 2.90348842 3.2508495 3.25521851 5.9810791 C3.34825753 8.51911182 3.33675153 11.03875244 3.29296875 13.578125 C3.28872391 14.5046991 3.28447906 15.43127319 3.28010559 16.38592529 C3.26333322 19.34091434 3.22568355 22.29521761 3.1875 25.25 C3.1724513 27.25519847 3.15876322 29.26040765 3.14648438 31.265625 C3.11343438 36.17734696 3.06166182 41.08855726 3 46 C5.97 46.33 8.94 46.66 12 47 C12.495 48.98 12.495 48.98 13 51 C8.1755914 52.57531709 4.14139563 53.48503732 -1 53 C-3.4375 51.6875 -3.4375 51.6875 -5 50 C-5 49.01 -5 48.02 -5 47 C-5.71542969 47.433125 -6.43085937 47.86625 -7.16796875 48.3125 C-14.63285841 52.48434002 -21.41852519 54.98753504 -30 53 C-33.78914005 50.35738941 -35.55870829 47.32387514 -37 43 C-37.39614654 37.75105833 -36.86557317 34.44657906 -34 30 C-27.2329819 22.59857395 -15.36617596 22.47402985 -6 22 C-6.11402064 19.72858891 -6.24158505 17.45785448 -6.375 15.1875 C-6.44460938 13.92292969 -6.51421875 12.65835938 -6.5859375 11.35546875 C-6.76102939 7.87244766 -6.76102939 7.87244766 -9 5 C-11.9331358 4.02228807 -13.88178994 3.86580989 -16.9375 3.875 C-17.79214844 3.87242187 -18.64679687 3.86984375 -19.52734375 3.8671875 C-22.85949818 4.01866846 -22.85949818 4.01866846 -26 5 C-27.1375213 7.08034294 -27.1375213 7.08034294 -27.75 9.5625 C-27.99234375 10.38878906 -28.2346875 11.21507812 -28.484375 12.06640625 C-28.65453125 12.70449219 -28.8246875 13.34257813 -29 14 C-30.32 14 -31.64 14 -33 14 C-34.10228696 9.59085217 -34.07654536 5.51617599 -34 1 C-32.75108386 0.51801537 -31.50081192 0.03954323 -30.25 -0.4375 C-29.55390625 -0.70433594 -28.8578125 -0.97117187 -28.140625 -1.24609375 C-19.14724113 -4.41347164 -8.49941152 -4.49025515 0 0 Z " fill="#3285E4" transform="translate(920,874)"/>
<path d="M0 0 C2.77016466 2.03460267 4.7082118 3.60365704 5.43301392 7.07217407 C5.57898562 9.62146672 5.56205149 12.12335981 5.48828125 14.67578125 C5.48120651 15.6009404 5.47413177 16.52609955 5.46684265 17.47929382 C5.43892815 20.42453003 5.37619557 23.36784173 5.3125 26.3125 C5.2874133 28.31312352 5.26460078 30.31377694 5.24414062 32.31445312 C5.18911108 37.21037316 5.10285901 42.10486068 5 47 C7.97 47.33 10.94 47.66 14 48 C14.495 49.98 14.495 49.98 15 52 C10.1755914 53.57531709 6.14139563 54.48503732 1 54 C-1.4375 52.6875 -1.4375 52.6875 -3 51 C-3 50.01 -3 49.02 -3 48 C-3.71542969 48.433125 -4.43085937 48.86625 -5.16796875 49.3125 C-12.63285841 53.48434002 -19.41852519 55.98753504 -28 54 C-31.78914005 51.35738941 -33.55870829 48.32387514 -35 44 C-35.39614654 38.75105833 -34.86557317 35.44657906 -32 31 C-25.2329819 23.59857395 -13.36617596 23.47402985 -4 23 C-4.11402064 20.72858891 -4.24158505 18.45785448 -4.375 16.1875 C-4.44460938 14.92292969 -4.51421875 13.65835938 -4.5859375 12.35546875 C-4.76102939 8.87244766 -4.76102939 8.87244766 -7 6 C-9.9331358 5.02228807 -11.88178994 4.86580989 -14.9375 4.875 C-15.79214844 4.87242187 -16.64679687 4.86984375 -17.52734375 4.8671875 C-20.85949818 5.01866846 -20.85949818 5.01866846 -24 6 C-25.1375213 8.08034294 -25.1375213 8.08034294 -25.75 10.5625 C-25.99234375 11.38878906 -26.2346875 12.21507812 -26.484375 13.06640625 C-26.65453125 13.70449219 -26.8246875 14.34257813 -27 15 C-28.32 15 -29.64 15 -31 15 C-31.33 10.71 -31.66 6.42 -32 2 C-30.7625 1.525625 -29.525 1.05125 -28.25 0.5625 C-27.55390625 0.29566406 -26.8578125 0.02882813 -26.140625 -0.24609375 C-17.81642547 -3.17779176 -8.27152332 -3.04740333 0 0 Z " fill="#3285E4" transform="translate(745,873)"/>
<path d="M0 0 C3.79214102 1.99949254 5.22329088 3.16885339 7.4375 6.8125 C7.97299926 9.97368375 7.90393327 13.07118031 7.828125 16.26953125 C7.82246521 17.17249435 7.81680542 18.07545746 7.81097412 19.00578308 C7.78864895 21.87940303 7.73846018 24.75175928 7.6875 27.625 C7.66742999 29.5774559 7.6491801 31.52993142 7.6328125 33.48242188 C7.58879682 38.25959878 7.51979626 43.0358354 7.4375 47.8125 C10.4075 48.1425 13.3775 48.4725 16.4375 48.8125 C16.1075 50.4625 15.7775 52.1125 15.4375 53.8125 C11.34231769 54.80527147 7.64166543 55.25504373 3.4375 54.8125 C1.10961786 53.35246866 -0.57660842 51.7499552 -2.5625 49.8125 C-3.09359375 50.08964844 -3.6246875 50.36679687 -4.171875 50.65234375 C-5.23148437 51.19568359 -5.23148437 51.19568359 -6.3125 51.75 C-7.35664063 52.28947266 -7.35664063 52.28947266 -8.421875 52.83984375 C-13.88965584 55.32429161 -19.64509641 55.45340573 -25.5625 54.8125 C-29.26291136 52.69797922 -30.94182589 50.6837172 -32.5625 46.8125 C-33.14870913 41.99351611 -33.13870861 37.02811409 -30.5625 32.8125 C-23.29999295 25.87277104 -14.29419129 23.6875 -4.375 23.6875 C-3.446875 23.72875 -2.51875 23.77 -1.5625 23.8125 C-1.70401828 21.7288691 -1.85087936 19.64560062 -2 17.5625 C-2.08121094 16.40234375 -2.16242188 15.2421875 -2.24609375 14.046875 C-2.55486368 10.34258123 -2.55486368 10.34258123 -3.5625 6.8125 C-7.32550374 5.55816542 -10.83460909 5.70554578 -14.75 5.75 C-15.87438477 5.75676758 -15.87438477 5.75676758 -17.02148438 5.76367188 C-18.86852383 5.77543646 -20.71552213 5.79337135 -22.5625 5.8125 C-23.2225 9.1125 -23.8825 12.4125 -24.5625 15.8125 C-25.8825 15.8125 -27.2025 15.8125 -28.5625 15.8125 C-29.66478696 11.40335217 -29.63904536 7.32867599 -29.5625 2.8125 C-19.76306586 -0.45397805 -10.30858694 -3.44267903 0 0 Z " fill="#3385E4" transform="translate(378.5625,872.1875)"/>
<path d="M0 0 C15.51 0 31.02 0 47 0 C40.51672669 19.44981993 26.49405926 36.64544677 8 46 C5.36 46.99 2.72 47.98 0 49 C0 32.83 0 16.66 0 0 Z " fill="#FEFEFE" transform="translate(120,120)"/>
<path d="M0 0 C3.42932292 2.90746943 4.97153749 4.94307498 7 9 C7 13.62 7 18.24 7 23 C-4.22 23 -15.44 23 -27 23 C-25.81902061 35.0204708 -25.81902061 35.0204708 -19.921875 44.1328125 C-16.00096562 46.63842037 -13.10610838 46.4901389 -8.5625 46.3125 C-7.82451172 46.30283203 -7.08652344 46.29316406 -6.32617188 46.28320312 C-2.13130184 46.19744134 1.87109516 45.80484199 6 45 C5.67 46.65 5.34 48.3 5 50 C-3.92126757 53.89291676 -14.14007923 54.50878023 -23.6640625 52.4140625 C-30.13965305 49.68881397 -33.58929604 43.45694689 -36.14453125 37.1953125 C-38.54733244 28.22046605 -38.22336201 16.34225923 -34 8 C-26.0598879 -3.96146086 -12.63197507 -6.42679433 0 0 Z " fill="#3385E4" transform="translate(328,874)"/>
<path d="M0 0 C4.21112976 2.69174664 7.18425342 6.41213526 8.75390625 11.12109375 C8.75390625 15.41109375 8.75390625 19.70109375 8.75390625 24.12109375 C-2.46609375 24.12109375 -13.68609375 24.12109375 -25.24609375 24.12109375 C-23.98190907 36.07936873 -23.98190907 36.07936873 -18.37890625 45.2578125 C-13.55833538 48.12491014 -8.92587486 47.54555839 -3.43359375 47.37109375 C-1.82194336 47.34402344 -1.82194336 47.34402344 -0.17773438 47.31640625 C2.4670609 47.26938767 5.11002214 47.20368535 7.75390625 47.12109375 C7.47265625 49.01342773 7.47265625 49.01342773 6.75390625 51.12109375 C1.03955065 53.93362815 -3.94023616 54.61777842 -10.24609375 54.55859375 C-11.37917969 54.58856445 -11.37917969 54.58856445 -12.53515625 54.61914062 C-19.13886373 54.61346734 -24.33357601 52.74685782 -29.26953125 48.296875 C-36.08761907 38.89737243 -36.12904182 28.37302175 -35.24609375 17.12109375 C-33.82462153 10.19366584 -30.74293283 5.9614219 -25.34375 1.49609375 C-17.97826306 -3.33193494 -8.03527324 -3.50599605 0 0 Z " fill="#3285E4" transform="translate(475.24609375,872.87890625)"/>
<path d="M0 0 C0 1.32 0 2.64 0 4 C0.72703125 3.71125 1.4540625 3.4225 2.203125 3.125 C10.63281715 0.01249828 19.34267781 -2.06573071 28.0625 1.25 C31.16774156 3.09993114 32.29939869 3.86052308 34 7 C34.4755471 10.18812509 34.48881279 13.35887225 34.51171875 16.578125 C34.52966995 17.5046991 34.54762115 18.43127319 34.56611633 19.38592529 C34.62022701 22.3405708 34.65411757 25.29505469 34.6875 28.25 C34.7206724 30.25523083 34.75516198 32.26044032 34.79101562 34.265625 C34.87595402 39.17696674 34.94276173 44.08826048 35 49 C37.97 49.99 40.94 50.98 44 52 C44 52.99 44 53.98 44 55 C34.76 55 25.52 55 16 55 C16 54.01 16 53.02 16 52 C19.37097383 50.50178941 21.20442119 50 25 50 C24.90661089 44.33970876 24.80055052 38.67985269 24.68261719 33.02001953 C24.64427832 31.09365386 24.60943418 29.1672154 24.578125 27.24072266 C24.53258055 24.47532082 24.47456963 21.71042231 24.4140625 18.9453125 C24.40251129 18.0806839 24.39096008 17.2160553 24.37905884 16.32522583 C24.47337842 11.68217152 24.47337842 11.68217152 22 8 C19.67182795 7.72234584 19.67182795 7.72234584 16.9921875 7.8046875 C16.1038623 7.80968262 15.21553711 7.81467773 14.30029297 7.81982422 C12.60477295 7.84713623 12.60477295 7.84713623 10.875 7.875 C5.491875 7.936875 5.491875 7.936875 0 8 C0 21.86 0 35.72 0 50 C2.97 50.66 5.94 51.32 9 52 C9 52.99 9 53.98 9 55 C-0.24 55 -9.48 55 -19 55 C-19 54.01 -19 53.02 -19 52 C-15.7 51.34 -12.4 50.68 -9 50 C-9 36.14 -9 22.28 -9 8 C-12.3 7.67 -15.6 7.34 -19 7 C-19 6.01 -19 5.02 -19 4 C-16.58490559 3.32713788 -14.16819644 2.66153988 -11.75 2 C-11.06808594 1.80921875 -10.38617187 1.6184375 -9.68359375 1.421875 C-6.29399088 0.50042956 -3.54221024 0 0 0 Z " fill="#3083E3" transform="translate(957,871)"/>
<path d="M0 0 C7.92 0 15.84 0 24 0 C24 1.32 24 2.64 24 4 C22.02 4.33 20.04 4.66 18 5 C19.83041246 8.82819209 21.66355415 12.65506097 23.49926758 16.48071289 C24.12372333 17.78308417 24.74742397 19.08581779 25.37036133 20.38891602 C26.26446729 22.25892761 27.16125641 24.12763103 28.05859375 25.99609375 C28.59798584 27.12200928 29.13737793 28.2479248 29.69311523 29.40795898 C30.76400847 31.86835857 30.76400847 31.86835857 32 33 C36.29 23.76 40.58 14.52 45 5 C42.69 4.67 40.38 4.34 38 4 C38 2.68 38 1.36 38 0 C45.59 0 53.18 0 61 0 C61 1.32 61 2.64 61 4 C59.77659912 4.17805176 58.55319824 4.35610352 57.29272461 4.53955078 C53.90639946 5.39878777 52.34678501 6.26267715 50.45532227 9.21435547 C49.71179237 10.58246224 49.00036595 11.96834799 48.31640625 13.3671875 C47.73764992 14.49037888 47.73764992 14.49037888 47.14720154 15.63626099 C46.33775412 17.22814645 45.54261605 18.8273784 44.76098633 20.43310547 C43.58477469 22.82961572 42.3455035 25.18419058 41.09570312 27.54296875 C35.22983108 39.0658444 33.71402614 49.1303279 34 62 C37.96 62.33 41.92 62.66 46 63 C46 64.32 46 65.64 46 67 C35.44 67 24.88 67 14 67 C14 65.68 14 64.36 14 63 C17.67761331 61.82316374 21.16669708 61.96421654 25 62 C26.6571678 47.13674241 22.42270851 35.91675715 15.875 22.875 C15.50005402 22.11181458 15.12510803 21.34862915 14.73880005 20.56231689 C13.64361139 18.35604708 12.51415138 16.17192299 11.3671875 13.9921875 C11.03455399 13.33051575 10.70192047 12.66884399 10.35920715 11.98712158 C7.64604421 7.04231848 5.14771129 5.69565252 0 4 C0 2.68 0 1.36 0 0 Z " fill="#3184E3" transform="translate(649,859)"/>
<path d="M0 0 C4.31678375 2.45464174 6.40166817 4.88338216 8.26953125 9.46875 C9.33510672 13.35016534 9.5714817 17.0040404 9.5625 21 C9.56088867 21.74523926 9.55927734 22.49047852 9.55761719 23.25830078 C9.41986951 29.51231524 8.46574161 35.36900005 5.1875 40.8125 C0.65285431 44.82112679 -3.54934013 44.97056902 -9.375 44.9375 C-10.06013672 44.94136719 -10.74527344 44.94523438 -11.45117188 44.94921875 C-16.5591133 44.93919335 -16.5591133 44.93919335 -18.8125 43.8125 C-18.8125 29.9525 -18.8125 16.0925 -18.8125 1.8125 C-11.62939287 -1.77905356 -7.58140989 -2.36142275 0 0 Z " fill="#FCFDFE" transform="translate(548.8125,877.1875)"/>
<path d="M0 0 C1.07314453 -0.02513672 1.07314453 -0.02513672 2.16796875 -0.05078125 C4.8125 0.3125 4.8125 0.3125 12.8125 3.3125 C12.8125 15.8525 12.8125 28.3925 12.8125 41.3125 C1.43526306 46.36904975 1.43526306 46.36904975 -5.1875 45.3125 C-9.42764235 43.56113685 -11.2285586 41.41694865 -13.1875 37.3125 C-16.67461281 28.50295185 -16.22041207 18.29484044 -13.17578125 9.40625 C-10.64863855 4.05230341 -5.99530932 0.0318335 0 0 Z " fill="#FCFDFE" transform="translate(842.1875,875.6875)"/>
<path d="M0 0 C-0.33 4.62 -0.66 9.24 -1 14 C-2.65 14 -4.3 14 -6 14 C-6.66 10.37 -7.32 6.74 -8 3 C-10.68893267 3.08771546 -13.37485308 3.19467925 -16.0625 3.3125 C-16.81466797 3.33505859 -17.56683594 3.35761719 -18.34179688 3.38085938 C-24.13481125 3.6567172 -29.15618224 4.55965295 -33.70703125 8.46484375 C-40.94633048 18.10871587 -40.97620903 29.28549162 -40 41 C-38.70093083 48.13705471 -36.68012718 53.48990462 -30.78125 57.9140625 C-30.1934375 58.27242187 -29.605625 58.63078125 -29 59 C-28.44828125 59.37640625 -27.8965625 59.7528125 -27.328125 60.140625 C-23.68572656 61.48513449 -20.09587339 61.20791269 -16.25 61.125 C-15.45722656 61.11597656 -14.66445312 61.10695313 -13.84765625 61.09765625 C-11.89830719 61.07417012 -9.94911425 61.03830137 -8 61 C-7.34 57.7 -6.68 54.4 -6 51 C-4.35 51 -2.7 51 -1 51 C-1 55.29 -1 59.58 -1 64 C-7.13089625 66.66191338 -12.21099116 67.54880897 -18.875 67.5 C-19.75615479 67.49572998 -20.63730957 67.49145996 -21.54516602 67.48706055 C-30.02118964 67.2651012 -35.42789461 65.02852414 -41.875 59.5625 C-48.91736716 51.07023372 -51.56953413 43.07115752 -51.4375 32.125 C-51.43065186 31.24948486 -51.42380371 30.37396973 -51.41674805 29.47192383 C-51.24941089 22.71513765 -50.25079045 17.00806155 -47 11 C-46.66097656 10.34 -46.32195312 9.68 -45.97265625 9 C-42.55744593 3.36064914 -36.38985417 -0.70710932 -30.09838867 -2.56005859 C-20.32220858 -4.609701 -9.21490035 -3.5670582 0 0 Z " fill="#3386E4" transform="translate(238,860)"/>
<path d="M0 0 C7.59 0 15.18 0 23 0 C22.67 1.32 22.34 2.64 22 4 C20.35 4.33 18.7 4.66 17 5 C20.82619029 16.0705766 24.68682606 27.10774507 29 38 C31.70528897 31.66644111 34.00130357 25.2144244 36.1875 18.6875 C36.44934082 17.91100098 36.71118164 17.13450195 36.98095703 16.33447266 C38.2264738 12.57844848 39.3513666 8.915245 40 5 C37.69 4.67 35.38 4.34 33 4 C33 2.68 33 1.36 33 0 C39.93 0 46.86 0 54 0 C53.67 1.32 53.34 2.64 53 4 C51.02 4.33 49.04 4.66 47 5 C46.86174805 5.56928223 46.72349609 6.13856445 46.58105469 6.72509766 C44.30162364 15.5912402 41.25979676 24.16729812 38.17675781 32.77832031 C37.25570241 35.35902243 36.35034148 37.94489138 35.4453125 40.53125 C25.72123727 67.97381516 25.72123727 67.97381516 17.125 72.40625 C12.689398 73.64560938 8.09897918 73.04948959 4 71 C4 69.68 4 68.36 4 67 C4.73605469 66.91363281 5.47210937 66.82726562 6.23046875 66.73828125 C12.53561846 65.84085564 12.53561846 65.84085564 18 62.75 C21.73670076 57.61203645 23.39211934 54.63446685 22.45236206 48.18099976 C21.69407885 44.52504441 20.34068523 41.17685313 18.91015625 37.73828125 C18.60556992 36.98459763 18.30098358 36.230914 17.98716736 35.45439148 C17.0212124 33.07001125 16.042166 30.69127489 15.0625 28.3125 C14.40862284 26.70543686 13.7556201 25.09801764 13.10351562 23.49023438 C11.90651439 20.54243834 10.70460069 17.59676195 9.49633789 14.65356445 C8.60898364 12.48693753 7.75907693 10.30330496 6.99389648 8.09057617 C6.11315143 5.63921044 6.11315143 5.63921044 2.875 4.6875 C1.92625 4.460625 0.9775 4.23375 0 4 C0 2.68 0 1.36 0 0 Z " fill="#3185E3" transform="translate(572,872)"/>
<path d="M0 0 C0.83031738 0.15992432 1.66063477 0.31984863 2.51611328 0.48461914 C6.27190656 1.04022388 9.9549675 1.18860406 13.7421875 1.24609375 C15.23568296 1.27903136 16.7291724 1.31224302 18.22265625 1.34570312 C20.54829836 1.39300017 22.87391591 1.43748167 25.19970703 1.47680664 C27.46411124 1.51687398 29.72804848 1.56832044 31.9921875 1.62109375 C32.67578339 1.6295079 33.35937927 1.63792206 34.06369019 1.64659119 C44.01564461 1.89725199 52.50022112 4.97892101 59.9375 11.625 C62 14 62 14 64 17 C47.55168622 23.28026526 28.30293374 26.30559445 11.8203125 19.0390625 C5.96178087 15.92188152 2.51281876 11.09168184 0 5 C-0.15625 2.1875 -0.15625 2.1875 0 0 Z " fill="#FCFDFE" transform="translate(526,339)"/>
<path d="M0 0 C-2.4375228 8.30973681 -5.029172 14.4690015 -12.81640625 18.8984375 C-26.98919871 26.04821831 -43.29081664 23.29878008 -58.078125 19.1328125 C-60.07041087 18.47498226 -62.03993421 17.74838876 -64 17 C-62.57578732 13.63502081 -60.91301762 11.76804295 -58.0625 9.5 C-57.02802734 8.64921875 -57.02802734 8.64921875 -55.97265625 7.78125 C-46.05723148 1.83981282 -36.29821573 1.38020728 -25.0625 1.3125 C-22.82357112 1.28331022 -20.58483761 1.24873741 -18.34605408 1.21000671 C-16.3337818 1.1775724 -14.32129589 1.15929512 -12.30883789 1.1418457 C-8.06629075 0.95997306 -4.27696987 -0.11880472 0 0 Z " fill="#FAFCFE" transform="translate(675,339)"/>
<path d="M0 0 C0 8.91 0 17.82 0 27 C-16.461738 35.230869 -16.461738 35.230869 -27 34 C-31.11622994 31.94188503 -33.33638928 30.2639392 -35 26 C-35.64926961 20.64730057 -35.9224092 14.94128601 -33.5 10 C-28.38874681 3.86649617 -21.45407341 2.3389082 -13.8125 1.25 C-13.03197266 1.12496094 -12.25144531 0.99992188 -11.44726562 0.87109375 C-7.51862417 0.2646368 -4.01948847 0 0 0 Z " fill="#FBFDFE" transform="translate(800,639)"/>
<path d="M0 0 C13.2 0 26.4 0 40 0 C41 5 41 5 40.08227539 7.03857422 C39.59235107 7.7038916 39.10242676 8.36920898 38.59765625 9.0546875 C38.04416504 9.82393555 37.49067383 10.59318359 36.92041016 11.38574219 C36.3072998 12.20719727 35.69418945 13.02865234 35.0625 13.875 C33.77904625 15.64778506 32.496534 17.42125204 31.21484375 19.1953125 C30.53276855 20.13020508 29.85069336 21.06509766 29.14794922 22.02832031 C25.39816535 27.21613222 21.76838147 32.48720097 18.125 37.75 C16.75298097 39.72422025 15.38061805 41.69820158 14.0078125 43.671875 C13.01523437 45.10015625 12.02265625 46.5284375 11 48 C18.26 48 25.52 48 33 48 C33.99 45.36 34.98 42.72 36 40 C37.32 40 38.64 40 40 40 C40 44.62 40 49.24 40 54 C26.8 54 13.6 54 0 54 C-1 49 -1 49 0.96484375 45.63671875 C1.94219272 44.31023154 2.93428534 42.99453469 3.9375 41.6875 C5.03996047 40.19398507 6.13869953 38.6977184 7.234375 37.19921875 C7.83443359 36.38114746 8.43449219 35.56307617 9.05273438 34.72021484 C12.73639307 29.57436163 16.19905095 24.27923075 19.6875 19 C21.0655959 16.91613054 22.44444121 14.83275638 23.82421875 12.75 C24.41291748 11.85796875 25.00161621 10.9659375 25.6081543 10.046875 C27 8 27 8 28 7 C21.07 6.67 14.14 6.34 7 6 C6.67 8.64 6.34 11.28 6 14 C4.35 14 2.7 14 1 14 C0.67 9.38 0.34 4.76 0 0 Z " fill="#3084E3" transform="translate(767,872)"/>
<path d="M0 0 C4.3613039 4.3613039 7.28997143 8.45341825 7.47265625 14.73046875 C7.46105469 15.99503906 7.44945312 17.25960937 7.4375 18.5625 C7.42847656 19.83480469 7.41945313 21.10710938 7.41015625 22.41796875 C7.39855469 23.39378906 7.38695312 24.36960937 7.375 25.375 C-5.96380305 26.47348966 -19.24829823 26.48390351 -32.625 26.375 C-32.82333174 18.32273118 -32.0926782 11.5791925 -27.9375 4.5 C-20.27288343 -2.54316117 -9.64991448 -4.32582373 0 0 Z " fill="#FCFDFE" transform="translate(560.625,599.625)"/>
<path d="M0 0 C0 1.65 0 3.3 0 5 C0.54269531 4.72285156 1.08539063 4.44570313 1.64453125 4.16015625 C2.35996094 3.79792969 3.07539063 3.43570313 3.8125 3.0625 C4.52019531 2.70285156 5.22789062 2.34320312 5.95703125 1.97265625 C9.35110511 0.35673963 11.97503621 -0.11630382 15.6875 -0.0625 C16.89986328 -0.04896484 16.89986328 -0.04896484 18.13671875 -0.03515625 C19.05904297 -0.01775391 19.05904297 -0.01775391 20 0 C20.11138159 5.45769811 19.91657981 10.61509359 19 16 C16.525 15.505 16.525 15.505 14 15 C13.67 12.36 13.34 9.72 13 7 C9.04 7.66 5.08 8.32 1 9 C1 22.53 1 36.06 1 50 C4.3 50.33 7.6 50.66 11 51 C11.66 51.33 12.32 51.66 13 52 C13 52.99 13 53.98 13 55 C2.77 55 -7.46 55 -18 55 C-17.67 53.68 -17.34 52.36 -17 51 C-14.69 50.34 -12.38 49.68 -10 49 C-9.67 35.47 -9.34 21.94 -9 8 C-11.97 7.67 -14.94 7.34 -18 7 C-17.67 5.68 -17.34 4.36 -17 3 C-5.47835991 -0.44419134 -5.47835991 -0.44419134 0 0 Z " fill="#3788E4" transform="translate(265,871)"/>
<path d="M0 0 C1.32 0 2.64 0 4 0 C4 3.96 4 7.92 4 12 C9.94 12 15.88 12 22 12 C22 13.98 22 15.96 22 18 C16.06 18 10.12 18 4 18 C4 31.86 4 45.72 4 60 C10.93 60.495 10.93 60.495 18 61 C18.66 61.33 19.32 61.66 20 62 C20 62.99 20 63.98 20 65 C13.10332167 66.83911422 6.14021964 67.9970577 -1 67 C-3.52858449 65.11736395 -3.97990946 64.06027163 -5 61 C-5.08610514 59.57281363 -5.11771828 58.14193352 -5.11352539 56.7121582 C-5.11341209 55.42115959 -5.11341209 55.42115959 -5.11329651 54.1040802 C-5.10813522 53.17899155 -5.10297394 52.25390289 -5.09765625 51.30078125 C-5.0962413 50.35059616 -5.09482635 49.40041107 -5.09336853 48.4214325 C-5.08776875 45.38508971 -5.07521632 42.34882052 -5.0625 39.3125 C-5.05748497 37.25455836 -5.05292207 35.19661556 -5.04882812 33.13867188 C-5.0377994 28.09241954 -5.02053493 23.04622225 -5 18 C-7.64 18 -10.28 18 -13 18 C-13 16.35 -13 14.7 -13 13 C-10.03 12.34 -7.06 11.68 -4 11 C-3.79503906 10.28972656 -3.59007812 9.57945312 -3.37890625 8.84765625 C-3.10949219 7.92855469 -2.84007812 7.00945313 -2.5625 6.0625 C-2.29566406 5.14597656 -2.02882813 4.22945312 -1.75390625 3.28515625 C-1 1 -1 1 0 0 Z " fill="#2E83E3" transform="translate(413,860)"/>
<path d="M0 0 C3.49504547 1.16501516 3.79196036 1.81320052 5.62890625 4.859375 C6.10650391 5.64570313 6.58410156 6.43203125 7.07617188 7.2421875 C7.56666016 8.06976563 8.05714844 8.89734375 8.5625 9.75 C9.05685547 10.56210937 9.55121094 11.37421875 10.06054688 12.2109375 C16.04720519 22.1589976 16.04720519 22.1589976 15.9375 26.4375 C14.64897884 29.95945783 12.485396 32.21872353 10 35 C9.57074219 35.70382812 9.14148438 36.40765625 8.69921875 37.1328125 C7 39 7 39 4.29296875 39.70703125 C0.97994196 39.81954914 -1.77358494 39.79806828 -5 39 C-7.19868522 36.87375208 -8.43204729 34.88102869 -9.81640625 32.1640625 C-10.94629989 29.7008143 -10.94629989 29.7008143 -14 28 C-13.523926 17.28833494 -6.12142577 8.34904521 0 0 Z " fill="#FBFCFE" transform="translate(599,273)"/>
<path d="M0 0 C0.63497254 5.07978034 -0.67610589 7.94986479 -3.44140625 12.0390625 C-7.7074358 17.40634779 -12.61855805 21.49570848 -19.61328125 22.30078125 C-26.95295409 22.33264669 -32.71170261 22.0392697 -38.26953125 16.90234375 C-44 10.73029772 -44 10.73029772 -44 7 C-42.58074219 6.96132813 -42.58074219 6.96132813 -41.1328125 6.921875 C-29.40297353 6.46726497 -17.85889956 4.71028875 -6.7265625 0.87109375 C-4 0 -4 0 0 0 Z " fill="#F9FCFE" transform="translate(596,362)"/>
<path d="M0 0 C8.37623762 1.81485149 8.37623762 1.81485149 11.4609375 2.73046875 C22.05465115 5.79052973 33.0509129 6.22488034 44 7 C42.84279923 12.24019311 39.84864302 15.35269444 36 19 C30.06872097 22.72158684 23.80491995 22.78937071 17 22 C9.67767062 20.02669429 4.53599819 14.37126005 0.8125 7.953125 C-0.30623585 5.26385612 -0.1308184 2.87800478 0 0 Z " fill="#F9FBFE" transform="translate(604,362)"/>
<path d="M0 0 C4.07450519 1.85581789 7.71796962 4.34372079 11.4375 6.8125 C12.09298828 7.23853516 12.74847656 7.66457031 13.42382812 8.10351562 C18.61239627 11.54347906 23.57413334 15.04560001 26 21 C25.44570313 21.33773438 24.89140625 21.67546875 24.3203125 22.0234375 C23.59585938 22.46945312 22.87140625 22.91546875 22.125 23.375 C21.40570312 23.81585938 20.68640625 24.25671875 19.9453125 24.7109375 C17.88206418 25.9853713 17.88206418 25.9853713 16 28 C15.85502015 30.58064129 15.81322455 33.04943884 15.875 35.625 C15.88853516 36.68460937 15.88853516 36.68460937 15.90234375 37.765625 C15.92592397 39.51056098 15.96179539 41.25532295 16 43 C11.25 42.234375 11.25 42.234375 9 40.125 C0.67935745 27.12399602 -0.33421778 14.96552945 0 0 Z " fill="#F9FBFE" transform="translate(560,293)"/>
<path d="M0 0 C0.44825754 14.01219873 -0.17116357 26.79622556 -8 39 C-10.625 41.625 -10.625 41.625 -13 43 C-13.99 43 -14.98 43 -16 43 C-15.78730469 41.46279297 -15.78730469 41.46279297 -15.5703125 39.89453125 C-14.44011929 32.7184141 -14.44011929 32.7184141 -16.12890625 25.9609375 C-17.86841223 24.4477442 -17.86841223 24.4477442 -21 23 C-21.78375 22.566875 -22.5675 22.13375 -23.375 21.6875 C-23.91125 21.460625 -24.4475 21.23375 -25 21 C-24.52309107 16.70781961 -22.07440665 14.84053063 -19 12 C-17.03439724 10.59637143 -15.03289326 9.24176698 -13 7.9375 C-9.95489724 5.97604988 -7.05666122 4.04627869 -4.25 1.75390625 C-2 0 -2 0 0 0 Z " fill="#F9FBFE" transform="translate(639,293)"/>
<path d="M0 0 C3.2047567 1.49770037 6.17410533 3.31403837 9.17944336 5.17407227 C15.61663408 9.14753708 21.83613081 12.46509244 29 15 C29 10.38 29 5.76 29 1 C29.33 1 29.66 1 30 1 C30 8.26 30 15.52 30 23 C22.125 21.875 22.125 21.875 19.25390625 20.37109375 C18.64482422 20.05849609 18.03574219 19.74589844 17.40820312 19.42382812 C16.79912109 19.09833984 16.19003906 18.77285156 15.5625 18.4375 C14.92634766 18.10814453 14.29019531 17.77878906 13.63476562 17.43945312 C12.08505424 16.63546752 10.54181678 15.81902334 9 15 C12.12955837 24.04464564 15.13506265 32.31551884 21 40 C21.66 40.99 22.32 41.98 23 43 C18.71 43 14.42 43 10 43 C10.99 42.505 10.99 42.505 12 42 C11.46890625 41.030625 10.9378125 40.06125 10.390625 39.0625 C3.85527965 26.79791758 -1.22826734 14.19331151 0 0 Z " fill="#3688E4" transform="translate(524,291)"/>
<path d="M0 0 C1.12932416 4.86478101 1.12932416 4.86478101 0 8 C-2.94930192 10.34749732 -6.12507653 12.11758324 -9.40625 13.9453125 C-23.90064248 22.01921449 -31.70633504 34.6633898 -39 49 C-41.64 49 -44.28 49 -47 49 C-43.88536222 37.688947 -37.60054729 28.80445077 -30 20 C-29.40703125 19.31035156 -28.8140625 18.62070313 -28.203125 17.91015625 C-22.35064801 11.59498343 -9.13537513 0 0 0 Z " fill="#CDCDCD" transform="translate(1080,1031)"/>
<path d="M0 0 C2.64 0 5.28 0 8 0 C3.43791908 17.64004622 -10.76279738 33.75873486 -26 43.25 C-30.21267626 45.68891783 -34.38694639 47.46231546 -39 49 C-39 46.03 -39 43.06 -39 40 C-37.89205078 39.50693359 -37.89205078 39.50693359 -36.76171875 39.00390625 C-18.79770799 30.58113628 -8.69218168 17.32846508 0 0 Z " fill="#CDCDCD" transform="translate(159,120)"/>
<path d="M0 0 C17.64004622 4.56208092 33.75873486 18.76279738 43.25 34 C45.68891783 38.21267626 47.46231546 42.38694639 49 47 C46.03 47 43.06 47 40 47 C39.50693359 45.89205078 39.50693359 45.89205078 39.00390625 44.76171875 C30.58113628 26.79770799 17.32846508 16.69218168 0 8 C0 5.36 0 2.72 0 0 Z " fill="#CDCDCD" transform="translate(120,1033)"/>
<path d="M0 0 C3.25390625 -0.3671875 3.25390625 -0.3671875 7 0 C9.15234375 2.4921875 9.15234375 2.4921875 10.9375 5.875 C11.61357495 7.07829537 12.29464578 8.27879627 12.98046875 9.4765625 C13.48586182 10.3742334 13.48586182 10.3742334 14.00146484 11.29003906 C21.80805425 24.65858484 34.54505844 32.2508277 48 39 C48 41.64 48 44.28 48 47 C29.17060858 42.1303298 12.93396053 26.79759334 3.26171875 10.39453125 C1.3925066 6.8470791 0 4.04683419 0 0 Z " fill="#CDCDCD" transform="translate(1032,120)"/>
<path d="M0 0 C-1.43719606 9.26193017 -5.79026913 21.65932032 -12.98046875 28.15625 C-17.92957428 30.2239614 -23.7608912 29.38755051 -29 29 C-28.56880859 27.93458984 -28.56880859 27.93458984 -28.12890625 26.84765625 C-27.02296925 24.05793974 -25.96837769 21.25575498 -24.9375 18.4375 C-24.59589844 17.50808594 -24.25429688 16.57867187 -23.90234375 15.62109375 C-22.93095081 13.11313031 -22.93095081 13.11313031 -22.76171875 10.81640625 C-22 9 -22 9 -19.3046875 7.65625 C-18.17289063 7.2746875 -17.04109375 6.893125 -15.875 6.5 C-11.99447794 5.12413982 -8.34610056 3.81066127 -4.8125 1.6875 C-2 0 -2 0 0 0 Z " fill="#F6FAFD" transform="translate(667,305)"/>
<path d="M0 0 C4.48251306 1.75085501 8.82402875 3.74719976 13.18359375 5.78125 C16.00684569 7.09947404 16.00684569 7.09947404 19.20703125 7.765625 C22 9 22 9 23.390625 11.828125 C23.67421875 12.95734375 23.9578125 14.0865625 24.25 15.25 C24.69085937 16.92835938 24.69085937 16.92835938 25.140625 18.640625 C25.42421875 19.74921875 25.7078125 20.8578125 26 22 C26.65016107 24.0054264 27.31163487 26.00736409 28 28 C15.98898077 29.19943604 15.98898077 29.19943604 11.6875 26.60546875 C7.10057144 21.57827696 4.49755381 15.25791572 2 9 C1.43732422 7.72189453 1.43732422 7.72189453 0.86328125 6.41796875 C0 4 0 4 0 0 Z " fill="#F9FBFE" transform="translate(533,306)"/>
<path d="M0 0 C0.79535156 0.16242188 1.59070313 0.32484375 2.41015625 0.4921875 C6.78304329 1.11076782 11.02812595 1.1456851 15.4375 1.125 C16.25798828 1.12886719 17.07847656 1.13273437 17.92382812 1.13671875 C22.7212763 1.12906121 27.26944388 0.80222082 32 0 C30.96495248 5.75026398 29.32929023 7.98828151 24.73046875 11.515625 C22.70721431 13.10086311 22.70721431 13.10086311 20.9375 16.3125 C19 19 19 19 15.75 19.875 C14.8425 19.91625 13.935 19.9575 13 20 C12.63648438 19.48050781 12.27296875 18.96101563 11.8984375 18.42578125 C9.40537642 14.96745806 7.16367873 11.9457355 3.6875 9.4375 C1 7 1 7 0.125 3.1875 C0.08375 2.135625 0.0425 1.08375 0 0 Z " fill="#F8FBFE" transform="translate(584,335)"/>
<path d="M0 0 C0 5.28 0 10.56 0 16 C-11.9807074 20.88102894 -11.9807074 20.88102894 -18 19 C-20.06934179 17.39430791 -20.8897573 16.49058003 -21.46875 13.9140625 C-21.52517708 9.78077916 -21.38979455 7.59097884 -19.0625 4.0625 C-12.96260486 -0.04559265 -7.27216063 0 0 0 Z " fill="#F6FAFD" transform="translate(377,901)"/>
<path d="M0 0 C0 5.28 0 10.56 0 16 C-8.00519603 19.4307983 -8.00519603 19.4307983 -12.75 19.4375 C-14.13445313 19.46650391 -14.13445313 19.46650391 -15.546875 19.49609375 C-18 19 -18 19 -19.796875 17.21875 C-21.6187089 13.85900437 -21.75901093 10.67098556 -21 7 C-18.09167385 2.81928116 -15.13798612 1.37322065 -10.35546875 0.26171875 C-6.92366259 -0.11959305 -3.45292516 0 0 0 Z " fill="#FAFCFE" transform="translate(914,901)"/>
<path d="M0 0 C0 5.28 0 10.56 0 16 C-7.96952909 19.41551247 -7.96952909 19.41551247 -12.75 19.375 C-13.67296875 19.38273438 -14.5959375 19.39046875 -15.546875 19.3984375 C-18 19 -18 19 -19.796875 17.75 C-22.07041487 14.44303291 -21.69953512 10.82726425 -21 7 C-18.12978526 2.7843721 -15.14113106 1.37395157 -10.35546875 0.26171875 C-6.92366259 -0.11959305 -3.45292516 0 0 0 Z " fill="#FAFCFE" transform="translate(741,901)"/>
<path d="M0 0 C3.1875 1.8125 3.1875 1.8125 5 5 C5 8.63 5 12.26 5 16 C-2.59 16 -10.18 16 -18 16 C-18 6.8 -18 6.8 -14 2 C-9.52137742 -0.98574839 -5.2450547 -0.7044453 0 0 Z " fill="#FAFCFE" transform="translate(320,877)"/>
<path d="M0 0 C2.65563802 1.8968843 3.57242527 3.14485055 5 6 C5 9.3 5 12.6 5 16 C-2.59 16 -10.18 16 -18 16 C-18 6.38709677 -18 6.38709677 -14.0625 1.6875 C-9.48014353 -0.83747193 -5.1198191 -0.8046557 0 0 Z " fill="#FAFCFE" transform="translate(469,877)"/>
<path d="M0 0 C0.66 0.99 1.32 1.98 2 3 C-5.27016505 9.15167812 -13.95480263 8.62708301 -23 8 C-26.19695908 7.37263975 -29.16954756 6.64152731 -32 5 C-32.66 4.01 -33.32 3.02 -34 2 C-25.42440085 -5.86096589 -9.92389153 -4.25309637 0 0 Z " fill="#F6FAFD" transform="translate(616,322)"/>
</svg>
