<?xml version="1.0" encoding="UTF-8"?>
<svg xmlns="http://www.w3.org/2000/svg" xmlns:xlink="http://www.w3.org/1999/xlink" width="32px" height="32px" viewBox="0 0 32 32" version="1.1">
<g id="surface1">
<path style=" stroke:none;fill-rule:nonzero;fill:rgb(100%,47.450981%,47.450981%);fill-opacity:1;" d="M 26.625 12.5625 C 27.316406 12.5625 27.875 13.121094 27.875 13.8125 C 27.875 14.503906 27.316406 15.0625 26.625 15.0625 C 25.933594 15.0625 25.375 14.503906 25.375 13.8125 C 25.375 13.121094 25.933594 12.5625 26.625 12.5625 Z M 26.625 12.5625 "/>
<path style=" stroke:none;fill-rule:nonzero;fill:rgb(83.92157%,35.686275%,35.686275%);fill-opacity:1;" d="M 25.640625 14.515625 C 25.640625 13.824219 26.199219 13.265625 26.890625 13.265625 C 27.289062 13.265625 27.640625 13.453125 27.871094 13.742188 C 27.835938 13.085938 27.292969 12.5625 26.625 12.5625 C 25.933594 12.5625 25.375 13.121094 25.375 13.8125 C 25.375 14.105469 25.476562 14.375 25.644531 14.585938 C 25.644531 14.5625 25.640625 14.539062 25.640625 14.515625 Z M 25.640625 14.515625 "/>
<path style=" stroke:none;fill-rule:nonzero;fill:rgb(84.313726%,87.058824%,92.941177%);fill-opacity:1;" d="M 29.125 20.6875 L 29.125 30.6875 L 2.875 30.6875 L 2.875 20.6875 Z M 29.125 20.6875 "/>
<path style=" stroke:none;fill-rule:nonzero;fill:rgb(68.627453%,72.549021%,82.352942%);fill-opacity:1;" d="M 3.578125 21.421875 L 29.125 21.421875 L 29.125 20.6875 L 2.875 20.6875 L 2.875 30.6875 L 3.578125 30.6875 Z M 3.578125 21.421875 "/>
<path style=" stroke:none;fill-rule:nonzero;fill:rgb(34.117648%,37.64706%,43.529412%);fill-opacity:1;" d="M 26.625 5.6875 L 23.523438 8.898438 C 23.523438 8.183594 23.515625 7.472656 23.53125 6.703125 C 18.269531 4.507812 13.53125 4.625 9.125 6.476562 C 9.113281 7.171875 9.117188 7.878906 9.125 8.585938 L 9.109375 8.628906 L 6 5.6875 L 16.414062 1.3125 Z M 26.625 5.6875 "/>
<path style=" stroke:none;fill-rule:nonzero;fill:rgb(25.490198%,29.019609%,33.725491%);fill-opacity:1;" d="M 23.523438 7.484375 C 23.519531 7.789062 23.519531 8.089844 23.523438 8.390625 C 23.523438 8.09375 23.523438 7.796875 23.53125 7.484375 C 23.527344 7.484375 23.523438 7.484375 23.523438 7.484375 Z M 23.523438 7.484375 "/>
<path style=" stroke:none;fill-rule:nonzero;fill:rgb(25.490198%,29.019609%,33.725491%);fill-opacity:1;" d="M 16.414062 2.09375 L 26.089844 6.238281 L 26.625 5.6875 L 16.414062 1.3125 L 6 5.6875 L 6.570312 6.230469 Z M 16.414062 2.09375 "/>
<path style=" stroke:none;fill-rule:nonzero;fill:rgb(34.117648%,37.64706%,43.529412%);fill-opacity:1;" d="M 17.25 9.929688 C 14.535156 9.84375 11.828125 10.222656 9.125 10.980469 C 9.136719 10.191406 9.128906 9.386719 9.125 8.585938 C 9.117188 7.878906 9.113281 7.171875 9.125 6.476562 C 13.53125 4.625 18.269531 4.507812 23.53125 6.703125 C 23.515625 7.472656 23.523438 8.183594 23.523438 8.898438 C 23.523438 9.570312 23.519531 10.246094 23.5 10.980469 C 21.410156 10.335938 19.328125 9.996094 17.25 9.929688 Z M 17.25 9.929688 "/>
<path style=" stroke:none;fill-rule:nonzero;fill:rgb(25.490198%,29.019609%,33.725491%);fill-opacity:1;" d="M 9.753906 10.8125 C 9.757812 10.25 9.753906 9.683594 9.75 9.117188 C 9.742188 8.410156 9.738281 7.703125 9.75 7.007812 C 13.980469 5.230469 18.515625 5.054688 23.527344 6.984375 C 23.527344 6.890625 23.527344 6.796875 23.53125 6.703125 C 18.269531 4.507812 13.53125 4.625 9.125 6.476562 C 9.113281 7.171875 9.117188 7.878906 9.125 8.585938 C 9.128906 9.386719 9.136719 10.191406 9.125 10.980469 C 9.335938 10.921875 9.546875 10.867188 9.753906 10.8125 Z M 9.753906 10.8125 "/>
<path style=" stroke:none;fill-rule:nonzero;fill:rgb(0%,0%,0%);fill-opacity:1;" d="M 25.375 27.5625 L 26.625 27.5625 L 26.625 28.8125 L 25.375 28.8125 Z M 25.375 27.5625 "/>
<path style=" stroke:none;fill-rule:nonzero;fill:rgb(0%,0%,0%);fill-opacity:1;" d="M 25.375 25.0625 L 26.625 25.0625 L 26.625 26.3125 L 25.375 26.3125 Z M 25.375 25.0625 "/>
<path style=" stroke:none;fill-rule:nonzero;fill:rgb(0%,0%,0%);fill-opacity:1;" d="M 25.375 22.5625 L 26.625 22.5625 L 26.625 23.8125 L 25.375 23.8125 Z M 25.375 22.5625 "/>
<path style=" stroke:none;fill-rule:nonzero;fill:rgb(0%,0%,0%);fill-opacity:1;" d="M 22.875 27.5625 L 24.125 27.5625 L 24.125 28.8125 L 22.875 28.8125 Z M 22.875 27.5625 "/>
<path style=" stroke:none;fill-rule:nonzero;fill:rgb(0%,0%,0%);fill-opacity:1;" d="M 22.875 25.0625 L 24.125 25.0625 L 24.125 26.3125 L 22.875 26.3125 Z M 22.875 25.0625 "/>
<path style=" stroke:none;fill-rule:nonzero;fill:rgb(0%,0%,0%);fill-opacity:1;" d="M 22.875 22.5625 L 24.125 22.5625 L 24.125 23.8125 L 22.875 23.8125 Z M 22.875 22.5625 "/>
<path style=" stroke:none;fill-rule:nonzero;fill:rgb(0%,0%,0%);fill-opacity:1;" d="M 20.375 27.5625 L 21.625 27.5625 L 21.625 28.8125 L 20.375 28.8125 Z M 20.375 27.5625 "/>
<path style=" stroke:none;fill-rule:nonzero;fill:rgb(0%,0%,0%);fill-opacity:1;" d="M 20.375 25.0625 L 21.625 25.0625 L 21.625 26.3125 L 20.375 26.3125 Z M 20.375 25.0625 "/>
<path style=" stroke:none;fill-rule:nonzero;fill:rgb(0%,0%,0%);fill-opacity:1;" d="M 20.375 22.5625 L 21.625 22.5625 L 21.625 23.8125 L 20.375 23.8125 Z M 20.375 22.5625 "/>
<path style=" stroke:none;fill-rule:nonzero;fill:rgb(0%,0%,0%);fill-opacity:1;" d="M 10.375 27.5625 L 19.125 27.5625 L 19.125 28.8125 L 10.375 28.8125 Z M 10.375 27.5625 "/>
<path style=" stroke:none;fill-rule:nonzero;fill:rgb(0%,0%,0%);fill-opacity:1;" d="M 17.875 25.0625 L 19.125 25.0625 L 19.125 26.3125 L 17.875 26.3125 Z M 17.875 25.0625 "/>
<path style=" stroke:none;fill-rule:nonzero;fill:rgb(0%,0%,0%);fill-opacity:1;" d="M 17.875 22.5625 L 19.125 22.5625 L 19.125 23.8125 L 17.875 23.8125 Z M 17.875 22.5625 "/>
<path style=" stroke:none;fill-rule:nonzero;fill:rgb(0%,0%,0%);fill-opacity:1;" d="M 15.375 25.0625 L 16.625 25.0625 L 16.625 26.3125 L 15.375 26.3125 Z M 15.375 25.0625 "/>
<path style=" stroke:none;fill-rule:nonzero;fill:rgb(0%,0%,0%);fill-opacity:1;" d="M 15.375 22.5625 L 16.625 22.5625 L 16.625 23.8125 L 15.375 23.8125 Z M 15.375 22.5625 "/>
<path style=" stroke:none;fill-rule:nonzero;fill:rgb(0%,0%,0%);fill-opacity:1;" d="M 12.875 25.0625 L 14.125 25.0625 L 14.125 26.3125 L 12.875 26.3125 Z M 12.875 25.0625 "/>
<path style=" stroke:none;fill-rule:nonzero;fill:rgb(0%,0%,0%);fill-opacity:1;" d="M 12.875 22.5625 L 14.125 22.5625 L 14.125 23.8125 L 12.875 23.8125 Z M 12.875 22.5625 "/>
<path style=" stroke:none;fill-rule:nonzero;fill:rgb(0%,0%,0%);fill-opacity:1;" d="M 10.375 25.0625 L 11.625 25.0625 L 11.625 26.3125 L 10.375 26.3125 Z M 10.375 25.0625 "/>
<path style=" stroke:none;fill-rule:nonzero;fill:rgb(0%,0%,0%);fill-opacity:1;" d="M 10.375 22.5625 L 11.625 22.5625 L 11.625 23.8125 L 10.375 23.8125 Z M 10.375 22.5625 "/>
<path style=" stroke:none;fill-rule:nonzero;fill:rgb(0%,0%,0%);fill-opacity:1;" d="M 7.875 27.5625 L 9.125 27.5625 L 9.125 28.8125 L 7.875 28.8125 Z M 7.875 27.5625 "/>
<path style=" stroke:none;fill-rule:nonzero;fill:rgb(0%,0%,0%);fill-opacity:1;" d="M 7.875 25.0625 L 9.125 25.0625 L 9.125 26.3125 L 7.875 26.3125 Z M 7.875 25.0625 "/>
<path style=" stroke:none;fill-rule:nonzero;fill:rgb(0%,0%,0%);fill-opacity:1;" d="M 7.875 22.5625 L 9.125 22.5625 L 9.125 23.8125 L 7.875 23.8125 Z M 7.875 22.5625 "/>
<path style=" stroke:none;fill-rule:nonzero;fill:rgb(0%,0%,0%);fill-opacity:1;" d="M 5.375 27.5625 L 6.625 27.5625 L 6.625 28.8125 L 5.375 28.8125 Z M 5.375 27.5625 "/>
<path style=" stroke:none;fill-rule:nonzero;fill:rgb(0%,0%,0%);fill-opacity:1;" d="M 5.375 25.0625 L 6.625 25.0625 L 6.625 26.3125 L 5.375 26.3125 Z M 5.375 25.0625 "/>
<path style=" stroke:none;fill-rule:nonzero;fill:rgb(0%,0%,0%);fill-opacity:1;" d="M 5.375 22.5625 L 6.625 22.5625 L 6.625 23.8125 L 5.375 23.8125 Z M 5.375 22.5625 "/>
<path style=" stroke:none;fill-rule:nonzero;fill:rgb(0%,0%,0%);fill-opacity:1;" d="M 23.523438 9.210938 C 23.445312 9.210938 23.367188 9.183594 23.304688 9.125 C 23.179688 9.003906 23.179688 8.808594 23.296875 8.683594 L 26.085938 5.796875 L 16.414062 1.652344 L 6.5625 5.789062 L 9.195312 8.28125 C 9.203125 8.28125 9.207031 8.285156 9.214844 8.285156 C 9.378906 8.335938 9.472656 8.511719 9.421875 8.675781 L 9.410156 8.722656 C 9.378906 8.824219 9.292969 8.90625 9.191406 8.933594 C 9.085938 8.960938 8.972656 8.933594 8.894531 8.859375 L 5.785156 5.914062 C 5.707031 5.84375 5.671875 5.734375 5.691406 5.632812 C 5.710938 5.527344 5.78125 5.441406 5.878906 5.398438 L 16.292969 1.023438 C 16.371094 0.992188 16.460938 0.992188 16.539062 1.023438 L 26.75 5.398438 C 26.84375 5.441406 26.910156 5.523438 26.929688 5.625 C 26.953125 5.726562 26.921875 5.832031 26.851562 5.90625 L 23.746094 9.117188 C 23.6875 9.179688 23.605469 9.210938 23.523438 9.210938 Z M 23.523438 9.210938 "/>
<path style=" stroke:none;fill-rule:nonzero;fill:rgb(0%,0%,0%);fill-opacity:1;" d="M 9.125 11.292969 C 9.058594 11.292969 8.988281 11.269531 8.933594 11.230469 C 8.855469 11.167969 8.8125 11.074219 8.8125 10.976562 C 8.824219 10.214844 8.816406 9.425781 8.8125 8.664062 L 8.8125 8.589844 C 8.808594 7.96875 8.800781 7.199219 8.8125 6.472656 C 8.8125 6.347656 8.890625 6.234375 9.003906 6.1875 C 11.257812 5.238281 13.582031 4.757812 15.90625 4.757812 C 18.410156 4.757812 21.015625 5.316406 23.648438 6.414062 C 23.769531 6.464844 23.84375 6.582031 23.839844 6.710938 C 23.832031 7.332031 23.832031 7.929688 23.835938 8.503906 L 23.835938 8.898438 C 23.835938 9.539062 23.835938 10.234375 23.8125 10.992188 C 23.808594 11.085938 23.761719 11.179688 23.683594 11.234375 C 23.601562 11.292969 23.5 11.308594 23.40625 11.28125 C 21.398438 10.65625 19.324219 10.308594 17.238281 10.242188 C 16.992188 10.234375 16.738281 10.230469 16.492188 10.230469 C 14.144531 10.230469 11.695312 10.585938 9.210938 11.28125 C 9.183594 11.289062 9.152344 11.292969 9.125 11.292969 Z M 9.433594 6.6875 C 9.425781 7.34375 9.433594 8.027344 9.4375 8.582031 L 9.4375 8.660156 C 9.441406 9.289062 9.445312 9.933594 9.441406 10.570312 C 11.84375 9.929688 14.214844 9.605469 16.492188 9.605469 C 16.746094 9.605469 17.003906 9.609375 17.261719 9.617188 C 19.261719 9.679688 21.257812 10 23.199219 10.5625 C 23.210938 9.972656 23.210938 9.417969 23.210938 8.902344 L 23.210938 8.503906 C 23.207031 7.992188 23.207031 7.464844 23.214844 6.914062 C 20.722656 5.898438 18.265625 5.382812 15.90625 5.382812 C 13.730469 5.382812 11.554688 5.820312 9.433594 6.6875 Z M 9.433594 6.6875 "/>
<path style=" stroke:none;fill-rule:nonzero;fill:rgb(0%,0%,0%);fill-opacity:1;" d="M 26.625 12.875 C 26.453125 12.875 26.3125 12.734375 26.3125 12.5625 L 26.3125 5.6875 C 26.3125 5.515625 26.453125 5.375 26.625 5.375 C 26.796875 5.375 26.9375 5.515625 26.9375 5.6875 L 26.9375 12.5625 C 26.9375 12.734375 26.796875 12.875 26.625 12.875 Z M 26.625 12.875 "/>
<path style=" stroke:none;fill-rule:nonzero;fill:rgb(0%,0%,0%);fill-opacity:1;" d="M 26.625 15.375 C 25.761719 15.375 25.0625 14.675781 25.0625 13.8125 C 25.0625 12.949219 25.761719 12.25 26.625 12.25 C 27.488281 12.25 28.1875 12.949219 28.1875 13.8125 C 28.1875 14.675781 27.488281 15.375 26.625 15.375 Z M 26.625 12.875 C 26.109375 12.875 25.6875 13.296875 25.6875 13.8125 C 25.6875 14.328125 26.109375 14.75 26.625 14.75 C 27.140625 14.75 27.5625 14.328125 27.5625 13.8125 C 27.5625 13.296875 27.140625 12.875 26.625 12.875 Z M 26.625 12.875 "/>
<path style=" stroke:none;fill-rule:nonzero;fill:rgb(0%,0%,0%);fill-opacity:1;" d="M 22.875 21 C 22.703125 21 22.5625 20.859375 22.5625 20.6875 L 22.5625 18.5 C 22.5625 18 22.367188 17.527344 22.011719 17.175781 C 21.660156 16.820312 21.1875 16.625 20.6875 16.625 L 6.625 16.625 C 6.125 16.625 5.652344 16.429688 5.300781 16.074219 C 4.945312 15.722656 4.75 15.25 4.75 14.75 C 4.75 13.714844 5.589844 12.875 6.625 12.875 L 15.6875 12.875 C 16.375 12.875 16.9375 12.3125 16.9375 11.625 L 16.9375 8.1875 C 16.9375 8.015625 17.078125 7.875 17.25 7.875 C 17.421875 7.875 17.5625 8.015625 17.5625 8.1875 L 17.5625 11.625 C 17.5625 12.660156 16.722656 13.5 15.6875 13.5 L 6.625 13.5 C 5.9375 13.5 5.375 14.0625 5.375 14.75 C 5.375 15.085938 5.503906 15.398438 5.742188 15.632812 C 5.976562 15.871094 6.289062 16 6.625 16 L 20.6875 16 C 21.355469 16 21.984375 16.261719 22.457031 16.730469 C 22.925781 17.203125 23.1875 17.832031 23.1875 18.5 L 23.1875 20.6875 C 23.1875 20.859375 23.046875 21 22.875 21 Z M 22.875 21 "/>
<path style=" stroke:none;fill-rule:nonzero;fill:rgb(0%,0%,0%);fill-opacity:1;" d="M 29.125 31 L 2.875 31 C 2.703125 31 2.5625 30.859375 2.5625 30.6875 L 2.5625 20.6875 C 2.5625 20.515625 2.703125 20.375 2.875 20.375 L 29.125 20.375 C 29.296875 20.375 29.4375 20.515625 29.4375 20.6875 L 29.4375 30.6875 C 29.4375 30.859375 29.296875 31 29.125 31 Z M 3.1875 30.375 L 28.8125 30.375 L 28.8125 21 L 3.1875 21 Z M 3.1875 30.375 "/>
</g>
</svg>
