<?xml version="1.0" encoding="UTF-8"?>
<svg xmlns="http://www.w3.org/2000/svg" xmlns:xlink="http://www.w3.org/1999/xlink" width="100px" height="100px" viewBox="0 0 100 100" version="1.1">
<g id="surface1">
<path style=" stroke:none;fill-rule:nonzero;fill:rgb(100%,47.450981%,47.450981%);fill-opacity:1;" d="M 83.203125 39.257812 C 85.363281 39.257812 87.109375 41.003906 87.109375 43.164062 C 87.109375 45.324219 85.363281 47.070312 83.203125 47.070312 C 81.042969 47.070312 79.296875 45.324219 79.296875 43.164062 C 79.296875 41.003906 81.042969 39.257812 83.203125 39.257812 Z M 83.203125 39.257812 "/>
<path style=" stroke:none;fill-rule:nonzero;fill:rgb(83.92157%,35.686275%,35.686275%);fill-opacity:1;" d="M 80.125 45.359375 C 80.125 43.199219 81.871094 41.453125 84.03125 41.453125 C 85.277344 41.453125 86.375 42.039062 87.097656 42.945312 C 86.988281 40.894531 85.289062 39.257812 83.203125 39.257812 C 81.042969 39.257812 79.296875 41.003906 79.296875 43.164062 C 79.296875 44.078125 79.613281 44.921875 80.140625 45.582031 C 80.140625 45.507812 80.125 45.433594 80.125 45.359375 Z M 80.125 45.359375 "/>
<path style=" stroke:none;fill-rule:nonzero;fill:rgb(84.313726%,87.058824%,92.941177%);fill-opacity:1;" d="M 91.015625 64.648438 L 91.015625 95.898438 L 8.984375 95.898438 L 8.984375 64.648438 Z M 91.015625 64.648438 "/>
<path style=" stroke:none;fill-rule:nonzero;fill:rgb(68.627453%,72.549021%,82.352942%);fill-opacity:1;" d="M 11.179688 66.945312 L 91.015625 66.945312 L 91.015625 64.648438 L 8.984375 64.648438 L 8.984375 95.898438 L 11.179688 95.898438 Z M 11.179688 66.945312 "/>
<path style=" stroke:none;fill-rule:nonzero;fill:rgb(34.117648%,37.64706%,43.529412%);fill-opacity:1;" d="M 83.203125 17.773438 L 73.511719 27.808594 C 73.511719 25.574219 73.484375 23.351562 73.535156 20.945312 C 57.09375 14.085938 42.285156 14.453125 28.515625 20.238281 C 28.480469 22.414062 28.492188 24.621094 28.515625 26.832031 L 28.464844 26.964844 L 18.75 17.773438 L 51.292969 4.101562 Z M 83.203125 17.773438 "/>
<path style=" stroke:none;fill-rule:nonzero;fill:rgb(25.490198%,29.019609%,33.725491%);fill-opacity:1;" d="M 73.511719 23.390625 C 73.5 24.339844 73.5 25.28125 73.511719 26.21875 C 73.511719 25.292969 73.511719 24.367188 73.535156 23.390625 C 73.523438 23.390625 73.511719 23.390625 73.511719 23.390625 Z M 73.511719 23.390625 "/>
<path style=" stroke:none;fill-rule:nonzero;fill:rgb(25.490198%,29.019609%,33.725491%);fill-opacity:1;" d="M 51.292969 6.542969 L 81.53125 19.496094 L 83.203125 17.773438 L 51.292969 4.101562 L 18.75 17.773438 L 20.53125 19.46875 Z M 51.292969 6.542969 "/>
<path style=" stroke:none;fill-rule:nonzero;fill:rgb(34.117648%,37.64706%,43.529412%);fill-opacity:1;" d="M 53.90625 31.03125 C 45.421875 30.761719 36.960938 31.945312 28.515625 34.3125 C 28.550781 31.847656 28.527344 29.332031 28.515625 26.832031 C 28.492188 24.621094 28.480469 22.414062 28.515625 20.238281 C 42.285156 14.453125 57.09375 14.085938 73.535156 20.945312 C 73.484375 23.351562 73.511719 25.574219 73.511719 27.808594 C 73.511719 29.90625 73.5 32.019531 73.4375 34.3125 C 66.90625 32.300781 60.398438 31.238281 53.90625 31.03125 Z M 53.90625 31.03125 "/>
<path style=" stroke:none;fill-rule:nonzero;fill:rgb(25.490198%,29.019609%,33.725491%);fill-opacity:1;" d="M 30.480469 33.789062 C 30.492188 32.03125 30.480469 30.261719 30.46875 28.492188 C 30.445312 26.28125 30.433594 24.070312 30.46875 21.898438 C 43.6875 16.34375 57.859375 15.796875 73.523438 21.828125 C 73.523438 21.53125 73.523438 21.242188 73.535156 20.945312 C 57.09375 14.085938 42.285156 14.453125 28.515625 20.238281 C 28.480469 22.414062 28.492188 24.621094 28.515625 26.832031 C 28.527344 29.332031 28.550781 31.847656 28.515625 34.3125 C 29.175781 34.128906 29.832031 33.960938 30.480469 33.789062 Z M 30.480469 33.789062 "/>
<path style=" stroke:none;fill-rule:nonzero;fill:rgb(0%,0%,0%);fill-opacity:1;" d="M 79.296875 86.132812 L 83.203125 86.132812 L 83.203125 90.039062 L 79.296875 90.039062 Z M 79.296875 86.132812 "/>
<path style=" stroke:none;fill-rule:nonzero;fill:rgb(0%,0%,0%);fill-opacity:1;" d="M 79.296875 78.320312 L 83.203125 78.320312 L 83.203125 82.226562 L 79.296875 82.226562 Z M 79.296875 78.320312 "/>
<path style=" stroke:none;fill-rule:nonzero;fill:rgb(0%,0%,0%);fill-opacity:1;" d="M 79.296875 70.507812 L 83.203125 70.507812 L 83.203125 74.414062 L 79.296875 74.414062 Z M 79.296875 70.507812 "/>
<path style=" stroke:none;fill-rule:nonzero;fill:rgb(0%,0%,0%);fill-opacity:1;" d="M 71.484375 86.132812 L 75.390625 86.132812 L 75.390625 90.039062 L 71.484375 90.039062 Z M 71.484375 86.132812 "/>
<path style=" stroke:none;fill-rule:nonzero;fill:rgb(0%,0%,0%);fill-opacity:1;" d="M 71.484375 78.320312 L 75.390625 78.320312 L 75.390625 82.226562 L 71.484375 82.226562 Z M 71.484375 78.320312 "/>
<path style=" stroke:none;fill-rule:nonzero;fill:rgb(0%,0%,0%);fill-opacity:1;" d="M 71.484375 70.507812 L 75.390625 70.507812 L 75.390625 74.414062 L 71.484375 74.414062 Z M 71.484375 70.507812 "/>
<path style=" stroke:none;fill-rule:nonzero;fill:rgb(0%,0%,0%);fill-opacity:1;" d="M 63.671875 86.132812 L 67.578125 86.132812 L 67.578125 90.039062 L 63.671875 90.039062 Z M 63.671875 86.132812 "/>
<path style=" stroke:none;fill-rule:nonzero;fill:rgb(0%,0%,0%);fill-opacity:1;" d="M 63.671875 78.320312 L 67.578125 78.320312 L 67.578125 82.226562 L 63.671875 82.226562 Z M 63.671875 78.320312 "/>
<path style=" stroke:none;fill-rule:nonzero;fill:rgb(0%,0%,0%);fill-opacity:1;" d="M 63.671875 70.507812 L 67.578125 70.507812 L 67.578125 74.414062 L 63.671875 74.414062 Z M 63.671875 70.507812 "/>
<path style=" stroke:none;fill-rule:nonzero;fill:rgb(0%,0%,0%);fill-opacity:1;" d="M 32.421875 86.132812 L 59.765625 86.132812 L 59.765625 90.039062 L 32.421875 90.039062 Z M 32.421875 86.132812 "/>
<path style=" stroke:none;fill-rule:nonzero;fill:rgb(0%,0%,0%);fill-opacity:1;" d="M 55.859375 78.320312 L 59.765625 78.320312 L 59.765625 82.226562 L 55.859375 82.226562 Z M 55.859375 78.320312 "/>
<path style=" stroke:none;fill-rule:nonzero;fill:rgb(0%,0%,0%);fill-opacity:1;" d="M 55.859375 70.507812 L 59.765625 70.507812 L 59.765625 74.414062 L 55.859375 74.414062 Z M 55.859375 70.507812 "/>
<path style=" stroke:none;fill-rule:nonzero;fill:rgb(0%,0%,0%);fill-opacity:1;" d="M 48.046875 78.320312 L 51.953125 78.320312 L 51.953125 82.226562 L 48.046875 82.226562 Z M 48.046875 78.320312 "/>
<path style=" stroke:none;fill-rule:nonzero;fill:rgb(0%,0%,0%);fill-opacity:1;" d="M 48.046875 70.507812 L 51.953125 70.507812 L 51.953125 74.414062 L 48.046875 74.414062 Z M 48.046875 70.507812 "/>
<path style=" stroke:none;fill-rule:nonzero;fill:rgb(0%,0%,0%);fill-opacity:1;" d="M 40.234375 78.320312 L 44.140625 78.320312 L 44.140625 82.226562 L 40.234375 82.226562 Z M 40.234375 78.320312 "/>
<path style=" stroke:none;fill-rule:nonzero;fill:rgb(0%,0%,0%);fill-opacity:1;" d="M 40.234375 70.507812 L 44.140625 70.507812 L 44.140625 74.414062 L 40.234375 74.414062 Z M 40.234375 70.507812 "/>
<path style=" stroke:none;fill-rule:nonzero;fill:rgb(0%,0%,0%);fill-opacity:1;" d="M 32.421875 78.320312 L 36.328125 78.320312 L 36.328125 82.226562 L 32.421875 82.226562 Z M 32.421875 78.320312 "/>
<path style=" stroke:none;fill-rule:nonzero;fill:rgb(0%,0%,0%);fill-opacity:1;" d="M 32.421875 70.507812 L 36.328125 70.507812 L 36.328125 74.414062 L 32.421875 74.414062 Z M 32.421875 70.507812 "/>
<path style=" stroke:none;fill-rule:nonzero;fill:rgb(0%,0%,0%);fill-opacity:1;" d="M 24.609375 86.132812 L 28.515625 86.132812 L 28.515625 90.039062 L 24.609375 90.039062 Z M 24.609375 86.132812 "/>
<path style=" stroke:none;fill-rule:nonzero;fill:rgb(0%,0%,0%);fill-opacity:1;" d="M 24.609375 78.320312 L 28.515625 78.320312 L 28.515625 82.226562 L 24.609375 82.226562 Z M 24.609375 78.320312 "/>
<path style=" stroke:none;fill-rule:nonzero;fill:rgb(0%,0%,0%);fill-opacity:1;" d="M 24.609375 70.507812 L 28.515625 70.507812 L 28.515625 74.414062 L 24.609375 74.414062 Z M 24.609375 70.507812 "/>
<path style=" stroke:none;fill-rule:nonzero;fill:rgb(0%,0%,0%);fill-opacity:1;" d="M 16.796875 86.132812 L 20.703125 86.132812 L 20.703125 90.039062 L 16.796875 90.039062 Z M 16.796875 86.132812 "/>
<path style=" stroke:none;fill-rule:nonzero;fill:rgb(0%,0%,0%);fill-opacity:1;" d="M 16.796875 78.320312 L 20.703125 78.320312 L 20.703125 82.226562 L 16.796875 82.226562 Z M 16.796875 78.320312 "/>
<path style=" stroke:none;fill-rule:nonzero;fill:rgb(0%,0%,0%);fill-opacity:1;" d="M 16.796875 70.507812 L 20.703125 70.507812 L 20.703125 74.414062 L 16.796875 74.414062 Z M 16.796875 70.507812 "/>
<path style=" stroke:none;fill-rule:nonzero;fill:rgb(0%,0%,0%);fill-opacity:1;" d="M 73.511719 28.785156 C 73.265625 28.785156 73.023438 28.699219 72.828125 28.515625 C 72.4375 28.136719 72.4375 27.527344 72.804688 27.136719 L 81.519531 18.117188 L 51.292969 5.164062 L 20.507812 18.089844 L 28.734375 25.878906 C 28.757812 25.878906 28.773438 25.890625 28.796875 25.890625 C 29.308594 26.050781 29.601562 26.597656 29.441406 27.113281 L 29.40625 27.257812 C 29.308594 27.574219 29.039062 27.832031 28.722656 27.917969 C 28.394531 28.003906 28.039062 27.917969 27.796875 27.6875 L 18.078125 18.480469 C 17.835938 18.261719 17.726562 17.921875 17.785156 17.601562 C 17.847656 17.273438 18.066406 17.003906 18.371094 16.871094 L 50.914062 3.199219 C 51.160156 3.101562 51.441406 3.101562 51.683594 3.199219 L 83.59375 16.871094 C 83.886719 17.003906 84.09375 17.261719 84.15625 17.578125 C 84.226562 17.894531 84.132812 18.226562 83.910156 18.457031 L 74.207031 28.492188 C 74.023438 28.6875 73.765625 28.785156 73.511719 28.785156 Z M 73.511719 28.785156 "/>
<path style=" stroke:none;fill-rule:nonzero;fill:rgb(0%,0%,0%);fill-opacity:1;" d="M 28.515625 35.289062 C 28.308594 35.289062 28.089844 35.21875 27.917969 35.09375 C 27.671875 34.898438 27.539062 34.605469 27.539062 34.300781 C 27.574219 31.921875 27.550781 29.457031 27.539062 27.074219 L 27.539062 26.84375 C 27.527344 24.902344 27.503906 22.496094 27.539062 20.226562 C 27.539062 19.835938 27.78125 19.484375 28.136719 19.335938 C 35.179688 16.371094 42.445312 14.867188 49.707031 14.867188 C 57.53125 14.867188 65.671875 16.613281 73.902344 20.042969 C 74.28125 20.203125 74.511719 20.570312 74.5 20.972656 C 74.476562 22.914062 74.476562 24.78125 74.488281 26.574219 L 74.488281 27.808594 C 74.488281 29.808594 74.488281 31.980469 74.414062 34.351562 C 74.402344 34.644531 74.253906 34.9375 74.011719 35.105469 C 73.753906 35.289062 73.4375 35.339844 73.144531 35.253906 C 66.871094 33.300781 60.386719 32.214844 53.871094 32.007812 C 53.101562 31.980469 52.308594 31.96875 51.539062 31.96875 C 44.203125 31.96875 36.546875 33.082031 28.785156 35.253906 C 28.699219 35.277344 28.601562 35.289062 28.515625 35.289062 Z M 29.480469 20.898438 C 29.457031 22.949219 29.480469 25.085938 29.492188 26.820312 L 29.492188 27.0625 C 29.503906 29.027344 29.515625 31.042969 29.503906 33.03125 C 37.011719 31.03125 44.421875 30.015625 51.539062 30.015625 C 52.332031 30.015625 53.136719 30.027344 53.941406 30.054688 C 60.191406 30.25 66.429688 31.25 72.496094 33.007812 C 72.535156 31.164062 72.535156 29.429688 72.535156 27.820312 L 72.535156 26.574219 C 72.523438 24.976562 72.523438 23.328125 72.546875 21.605469 C 64.757812 18.433594 57.078125 16.820312 49.707031 16.820312 C 42.90625 16.820312 36.109375 18.1875 29.480469 20.898438 Z M 29.480469 20.898438 "/>
<path style=" stroke:none;fill-rule:nonzero;fill:rgb(0%,0%,0%);fill-opacity:1;" d="M 83.203125 40.234375 C 82.664062 40.234375 82.226562 39.792969 82.226562 39.257812 L 82.226562 17.773438 C 82.226562 17.234375 82.664062 16.796875 83.203125 16.796875 C 83.742188 16.796875 84.179688 17.234375 84.179688 17.773438 L 84.179688 39.257812 C 84.179688 39.792969 83.742188 40.234375 83.203125 40.234375 Z M 83.203125 40.234375 "/>
<path style=" stroke:none;fill-rule:nonzero;fill:rgb(0%,0%,0%);fill-opacity:1;" d="M 83.203125 48.046875 C 80.503906 48.046875 78.320312 45.863281 78.320312 43.164062 C 78.320312 40.464844 80.503906 38.28125 83.203125 38.28125 C 85.902344 38.28125 88.085938 40.464844 88.085938 43.164062 C 88.085938 45.863281 85.902344 48.046875 83.203125 48.046875 Z M 83.203125 40.234375 C 81.59375 40.234375 80.273438 41.550781 80.273438 43.164062 C 80.273438 44.773438 81.59375 46.09375 83.203125 46.09375 C 84.8125 46.09375 86.132812 44.773438 86.132812 43.164062 C 86.132812 41.550781 84.8125 40.234375 83.203125 40.234375 Z M 83.203125 40.234375 "/>
<path style=" stroke:none;fill-rule:nonzero;fill:rgb(0%,0%,0%);fill-opacity:1;" d="M 71.484375 65.625 C 70.945312 65.625 70.507812 65.1875 70.507812 64.648438 L 70.507812 57.8125 C 70.507812 56.25 69.898438 54.773438 68.785156 53.675781 C 67.6875 52.5625 66.210938 51.953125 64.648438 51.953125 L 20.703125 51.953125 C 19.140625 51.953125 17.664062 51.34375 16.566406 50.230469 C 15.453125 49.132812 14.84375 47.65625 14.84375 46.09375 C 14.84375 42.859375 17.46875 40.234375 20.703125 40.234375 L 49.023438 40.234375 C 51.171875 40.234375 52.929688 38.476562 52.929688 36.328125 L 52.929688 25.585938 C 52.929688 25.046875 53.367188 24.609375 53.90625 24.609375 C 54.445312 24.609375 54.882812 25.046875 54.882812 25.585938 L 54.882812 36.328125 C 54.882812 39.5625 52.257812 42.1875 49.023438 42.1875 L 20.703125 42.1875 C 18.554688 42.1875 16.796875 43.945312 16.796875 46.09375 C 16.796875 47.144531 17.199219 48.121094 17.945312 48.851562 C 18.675781 49.597656 19.652344 50 20.703125 50 L 64.648438 50 C 66.734375 50 68.703125 50.816406 70.179688 52.28125 C 71.644531 53.757812 72.460938 55.726562 72.460938 57.8125 L 72.460938 64.648438 C 72.460938 65.1875 72.023438 65.625 71.484375 65.625 Z M 71.484375 65.625 "/>
<path style=" stroke:none;fill-rule:nonzero;fill:rgb(0%,0%,0%);fill-opacity:1;" d="M 91.015625 96.875 L 8.984375 96.875 C 8.449219 96.875 8.007812 96.4375 8.007812 95.898438 L 8.007812 64.648438 C 8.007812 64.109375 8.449219 63.671875 8.984375 63.671875 L 91.015625 63.671875 C 91.554688 63.671875 91.992188 64.109375 91.992188 64.648438 L 91.992188 95.898438 C 91.992188 96.4375 91.554688 96.875 91.015625 96.875 Z M 9.960938 94.921875 L 90.039062 94.921875 L 90.039062 65.625 L 9.960938 65.625 Z M 9.960938 94.921875 "/>
</g>
</svg>
